<svg xmlns="http://www.w3.org/2000/svg" width="224" height="224" viewBox="0 0 224 224" fill="none">
  <path d="M46.4483 106.704H89.894C98.5161 106.704 106.805 110.315 112.931 116.776C119.06 123.241 122.518 132.027 122.518 141.206V187.013C122.518 192.467 124.572 197.715 128.253 201.598C131.938 205.484 136.955 207.685 142.208 207.685H202.032C207.285 207.685 212.302 205.484 215.987 201.598C219.669 197.715 221.722 192.467 221.722 187.013V123.932C221.722 118.478 219.669 113.23 215.987 109.347C212.302 105.461 207.285 103.26 202.032 103.26H158.587C149.965 103.26 141.676 99.6481 135.55 93.1869C129.421 86.7225 125.962 77.9362 125.962 68.7568V22.9502C125.962 17.4963 123.909 12.2486 120.227 8.36563C116.543 4.47955 111.525 2.27806 106.273 2.27806H46.4483C41.1959 2.27806 36.1783 4.47955 32.4938 8.36563C28.8122 12.2486 26.7588 17.4963 26.7588 22.9502V86.0314C26.7588 91.4853 28.8122 96.733 32.4938 100.616L33.7434 99.4312L32.4938 100.616C36.1784 104.502 41.1959 106.704 46.4483 106.704Z" fill="#F29325" stroke="#F8F5E7" stroke-width="3.44388"/>
  <path d="M8.01302 114.653L9.26258 113.468L8.01302 114.653C11.6976 118.539 16.7151 120.741 21.9676 120.741H65.4133C74.0353 120.741 82.324 124.352 88.4502 130.813C94.5794 137.278 98.0377 146.064 98.0377 155.244V201.05C98.0377 206.504 100.091 211.752 103.773 215.635C107.457 219.521 112.475 221.722 117.727 221.722H177.552C182.804 221.722 187.822 219.521 191.506 215.635C195.188 211.752 197.241 206.504 197.241 201.05V137.969C197.241 132.515 195.188 127.267 191.506 123.384C187.822 119.498 182.804 117.297 177.552 117.297H134.106C125.484 117.297 117.195 113.685 111.069 107.224C104.94 100.76 101.482 91.9734 101.482 82.7939V36.9873C101.482 31.5335 99.4282 26.2857 95.7466 22.4027C92.062 18.5167 87.0445 16.3152 81.792 16.3152H21.9676C16.7151 16.3152 11.6976 18.5167 8.01302 22.4027C4.33141 26.2857 2.27806 31.5335 2.27806 36.9873V100.068C2.27806 105.522 4.33141 110.77 8.01302 114.653Z" fill="#007172" stroke="#F8F5E7" stroke-width="3.44388"/>
</svg>