<svg width="536" height="200" viewBox="0 0 536 200" fill="none" xmlns="http://www.w3.org/2000/svg">
<path d="M42.0102 81.3999H42.0119H42.0136H42.0153H42.017H42.0186H42.0203H42.022H42.0237H42.0254H42.027H42.0287H42.0304H42.0321H42.0338H42.0354H42.0371H42.0388H42.0405H42.0422H42.0438H42.0455H42.0472H42.0489H42.0506H42.0522H42.0539H42.0556H42.0573H42.059H42.0606H42.0623H42.064H42.0657H42.0674H42.069H42.0707H42.0724H42.0741H42.0758H42.0775H42.0791H42.0808H42.0825H42.0842H42.0859H42.0875H42.0892H42.0909H42.0926H42.0943H42.0959H42.0976H42.0993H42.101H42.1027H42.1043H42.106H42.1077H42.1094H42.1111H42.1127H42.1144H42.1161H42.1178H42.1195H42.1211H42.1228H42.1245H42.1262H42.1279H42.1295H42.1312H42.1329H42.1346H42.1363H42.1379H42.1396H42.1413H42.143H42.1447H42.1463H42.148H42.1497H42.1514H42.1531H42.1547H42.1564H42.1581H42.1598H42.1615H42.1631H42.1648H42.1665H42.1682H42.1698H42.1715H42.1732H42.1749H42.1766H42.1782H42.1799H42.1816H42.1833H42.185H42.1866H42.1883H42.19H42.1917H42.1934H42.195H42.1967H42.1984H42.2001H42.2018H42.2034H42.2051H42.2068H42.2085H42.2102H42.2118H42.2135H42.2152H42.2169H42.2185H42.2202H42.2219H42.2236H42.2253H42.2269H42.2286H42.2303H42.232H42.2337H42.2353H42.237H42.2387H42.2404H42.242H42.2437H42.2454H42.2471H42.2488H42.2504H42.2521H42.2538H42.2555H42.2571H42.2588H42.2605H42.2622H42.2639H42.2655H42.2672H42.2689H42.2706H42.2722H42.2739H42.2756H42.2773H42.279H42.2806H42.2823H42.284H42.2857H42.2873H42.289H42.2907H42.2924H42.294H42.2957H42.2974H42.2991H42.3008H42.3024H42.3041H42.3058H42.3075H42.3091H42.3108H42.3125H42.3142H42.3158H42.3175H42.3192H42.3209H42.3225H42.3242H42.3259H42.3276H42.3292H42.3309H42.3326H42.3343H42.3359H42.3376H42.3393H42.341H42.3426H42.3443H42.346H42.3477H42.3494H42.351H42.3527H42.3544H42.356H42.3577H42.3594H42.3611H42.3627H42.3644H42.3661H42.3678H42.3694H42.3711H42.3728H42.3745H42.3761H42.3778H42.3795H42.3812H42.3828H42.3845H42.3862H42.3879H42.3895H42.3912H42.3929H42.3946H42.3962H42.3979H42.3996H42.4012H42.4029H42.4046H42.4063H42.4079H42.4096H42.4113H42.413H42.4146H42.4163H42.418H42.4196H42.4213H42.423H42.4247H42.4263H42.428H42.4297H42.4313H42.433H42.4347H42.4364H42.438H42.4397H42.4414H42.443H42.4447H42.4464H42.4481H42.4497H42.4514H42.4531H42.4547H42.4564H42.4581H42.4597H42.4614H42.4631H42.4648H42.4664H42.4681H42.4698H42.4714H42.4731H42.4748H42.4764H42.4781H42.4798H42.4815H42.4831H42.4848H42.4865H42.4881H42.4898H42.4915H42.4931H42.4948H42.4965H42.4981H42.4998H42.5015H42.5031H42.5048H42.5065H42.5081H42.5098H42.5115H42.5131H42.5148H42.5165H42.5181H42.5198H42.5215H42.5231H42.5248H42.5265H42.5281H42.5298H42.5315H42.5331H42.5348H42.5365H42.5381H42.5398H42.5415H42.5431H42.5448H42.5465H42.5481H42.5498H42.5515H42.5531H42.5548H42.5565H42.5581H42.5598H42.5615H42.5631H42.5648H42.5664H42.5681H42.5698H42.5714H42.5731H42.5748H42.5764H42.5781H42.5798H42.5814H42.5831H42.5847H42.5864H42.5881H42.5897H42.5914H42.5931H42.5947H42.5964H42.598H42.5997H42.6014H42.603H42.6047H42.6064H42.608H42.6097H42.6113H42.613H42.6147H42.6163H42.618H42.6196H42.6213H42.623H42.6246H42.6263H42.6279H42.6296H42.6313H42.6329H42.6346H42.6362H42.6379H42.6396H42.6412H42.6429H42.6445H42.6462H42.6479H42.6495H42.6512H42.6528H42.6545H42.6561H42.6578H42.6595H42.6611H42.6628H42.6644H42.6661H42.6677H42.6694H42.6711H42.6727H42.6744H42.676H42.6777H42.6793H42.681H42.6827H42.6843H42.686H42.6876H42.6893H42.6909H42.6926H42.6942H42.6959H42.6975H42.6992H42.7009H42.7025H42.7042H42.7058H42.7075H42.7091H42.7108H42.7124H42.7141H42.7157H42.7174H42.719H42.7207H42.7224H42.724H42.7257H42.7273H42.729H42.7306H42.7323H42.7339H42.7356H42.7372H42.7389H42.7405H42.7422H42.7438H42.7455H42.7471H42.7488H42.7504H42.7521H42.7537H42.7554H42.757H42.7587H42.7603H42.762H42.7636H42.7653H42.7669H42.7686H42.7702H42.7719H42.7735H42.7752H42.7768H42.7785H42.7801H42.7817H42.7834H42.785H42.7867H42.7883H42.79H42.7916H42.7933H42.7949H42.7966H42.7982H42.7999H42.8015H42.8031H42.8048H42.8064H42.8081H42.8097H42.8114H42.813H42.8147H42.8163H42.8179H42.8196H42.8212H42.8229H42.8245H42.8262H42.8278H42.8295H42.8311H42.8327H42.8344H42.836H42.8377H42.8393H42.8409H42.8426H42.8442H42.8459H42.8475H42.8492H42.8508H42.8524H42.8541H42.8557H42.8574H42.859H42.8606H42.8623H42.8639H42.9415H42.9424H42.9433H42.9442H42.9452H42.9461H42.947H42.9479H42.9488H42.9498H42.9507H42.9516H42.9526H42.9535H42.9544H42.9554H42.9563H42.9572H42.9582H42.9591H42.9601H42.961H42.9619H42.9629H42.9638H42.9648H42.9658H42.9667H42.9677H42.9686H42.9696H42.9706H42.9715H42.9725H42.9735H42.9744H42.9754H42.9764H42.9774H42.9783H42.9793H42.9803H42.9813H42.9823H42.9832H42.9842H42.9852H42.9862H42.9872H42.9882H42.9892H42.9902H42.9912H42.9922H42.9932H42.9942H42.9952H42.9962H42.9972H42.9983H42.9993H43.0003H43.0013H43.0023H43.0034H43.0044H43.0054H43.0064H43.0075H43.0085H43.0095H43.0106H43.0116H43.0126H43.0137H43.0147H43.0158H43.0168H43.0178H43.0189H43.0199H43.021H43.0221H43.0231H43.0242H43.0252H43.0263H43.0274H43.0284H43.0295H43.0306H43.0316H43.0327H43.0338H43.0348H43.0359H43.037H43.0381H43.0392H43.0402H43.0413H43.0424H43.0435H43.0446H43.0457H43.0468H43.0479H43.049H43.0501H43.0512H43.0523H43.0534H43.0545H43.0556H43.0567H43.0578H43.059H43.0601H43.0612H43.0623H43.0634H43.0646H43.0657H43.0668H43.0679H43.0691H43.0702H43.0713H43.0725H43.0736H43.0747H43.0759H43.077H43.0782H43.0793H43.0805H43.0816H43.0828H43.0839H43.0851H43.0862H43.0874H43.0886H43.0897H43.0909H43.0921H43.0932H43.0944H43.0956H43.0967H43.0979H43.0991H43.1003H43.1014H43.1026H43.1038H43.105H43.1062H43.1074H43.1086H43.1098H43.111H43.1121H43.1133H43.1145H43.1157H43.117H43.1182H43.1194H43.1206H43.1218H43.123H43.1242H43.1254H43.1266H43.1279H43.1291H43.1303H43.1315H43.1328H43.134H43.1352H43.1364H43.1377H43.1389H43.1402H43.1414H43.1426H43.1439H43.1451H43.1464H43.1476H43.1489H43.1501H43.1514H43.1526H43.1539H43.1551H43.1564H43.1577H43.1589H43.1602H43.1615H43.1627H43.164H43.1653H43.1665H43.1678H43.1691H43.1704H43.1717H43.1729H43.1742H43.1755H43.1768H43.1781H43.1794H43.1807H43.182H43.1833H43.1846H43.1859H43.1872H43.1885H43.1898H43.1911H43.1924H43.1937H43.195H43.1963H43.1977H43.199H43.2003H43.2016H43.203H43.2043H43.2056H43.2069H43.2083H43.2096H43.2109H43.2123H43.2136H43.215H43.2163H43.2176H43.219H43.2203H43.2217H43.223H43.2244H43.2257H43.2271H43.2285H43.2298H43.2312H43.2325H43.2339H43.2353H43.2366H43.238H43.2394H43.2408H43.2421H43.2435H43.2449H43.2463H43.2476H43.249H43.2504H43.2518H43.2532H43.2546H43.256H43.2574H43.2588H43.2602H43.2616H43.263H43.2644H43.2658H43.2672H43.2686H43.27H43.2714H43.2728H43.2743H43.2757H43.2771H43.2785H43.2799H43.2814H43.2828H43.2842H43.2857H43.2871H43.2885H43.29H43.2914H43.2928H43.2943H43.2957H43.2972H43.2986H43.3001H43.3015H43.303H43.3044H43.3059H43.3073H43.3088H43.3103H43.3117H43.3132H43.3146H43.3161H43.3176H43.3191H43.3205H43.322H43.3235H43.325H43.3264H43.3279H43.3294H43.3309H43.3324H43.3339H43.3354H43.3369H43.3383H43.3398H43.3413H43.3428H43.3443H43.3458H43.3474H43.3489H43.3504H43.3519H43.3534H43.3549H43.3564H43.3579H43.3595H43.361H43.3625H43.364H43.3656H43.3671H43.3686H43.3701H43.3717H43.3732H43.3748H43.3763H43.3778H43.3794H43.3809H43.3825H43.384H43.3856H43.3871H43.3887H43.3902H43.3918H43.3933H43.3949H43.3965H43.398H43.3996H43.4012H43.4027H43.4043H43.4059H43.4075H43.409H43.4106H43.4122H43.4138H43.4154H43.4169H43.4185H43.4201H43.4217H43.4233H43.4249H43.4265H43.4281H43.4297H43.4313H43.4329H43.4345H43.4361H43.4377H43.4393H43.4409H43.4425H43.4442H43.4458H43.4474H43.449H43.4506H43.4523H43.4539H43.4555H43.4571H43.4588H43.4604H43.462H43.4637H43.4653H43.467H43.4686H43.4702H43.4719H43.4735H43.4752H43.4768H43.4785H43.4801H43.4818H43.4835H43.4851H43.4868H43.4884H43.4901H43.4918H43.4935H43.4951H43.4968H43.4985H43.5001H43.5018H43.5035H43.5052H43.5069H43.5085H43.5102H43.5119H43.5136H43.5153H43.517H43.5187H43.5204H43.5221H43.5238H43.5255H43.5272H43.5289H43.5306H43.5323H43.534H43.5357H43.5375H43.5392H43.5409H43.5426H43.5443H43.5461H43.5478H43.5495H43.5512H43.553H43.5547H43.5564H43.5582H43.5599H43.5617H43.5634H43.5651H43.5669H43.5686H43.5704H43.5721H43.5739H43.5756H43.5774H43.5792H43.5809H43.5827H43.5844H43.5862H43.588H43.5897H43.5915H43.5933H43.5951H43.5968H43.5986H43.6004H43.6022H43.6039H43.6057H43.6075H43.6093H43.6111H43.6129H43.6147H43.6165H43.6183H43.6201H43.6219H43.6237H43.6255H43.6273H43.6291H43.6309H43.6327H43.6345H43.6363H43.6382H43.64H43.6435H43.647H43.6504H43.6539H43.6574H43.6609H43.6644H43.6679H43.6714H43.6749H43.6784H43.6819H43.6854H43.6889H43.6924H43.6959H43.6993H43.7028H43.7063H43.7098H43.7133H43.7168H43.7203H43.7238H43.7273H43.7308H43.7343H43.7378H43.7413H43.7447H43.7482H43.7517H43.7552H43.7587H43.7622H43.7657H43.7692H43.7727H43.7762H43.7797H43.7832H43.7867H43.7902H43.7936H43.7971H43.8006H43.8041H43.8076H43.8111H43.8146H43.8181H43.8216H43.8251H43.8286H43.8321H43.8356H43.839H43.8425H43.846H43.8495H43.853H43.8565H43.86H43.8635H43.867H43.8705H43.874H43.8775H43.881H43.8845H43.8879H43.8914H43.8949H43.8984H43.9019H43.9054H43.9089H43.9124H43.9159H43.9194H43.9229H43.9264H43.9299H43.9333H43.9368H43.9403H43.9438H43.9473H43.9508H43.9543H43.9578H43.9613H43.9648H43.9683H43.9718H43.9753H43.9787H43.9822H43.9857H43.9892H43.9927H43.9962H43.9997H44.0032H44.0067H44.0102H44.0137H44.0172H44.0207H44.0241H44.0276H44.0311H44.0346H44.0381H44.0416H44.0451H44.0486H44.0521H44.0556H44.0591H44.0626H44.066H44.0695H44.073H44.0765H44.08H44.0835H44.087H44.0905H44.094H44.0975H44.101H44.1045H44.1079H44.1114H44.1149H44.1184H44.1219H44.1254H44.1289H44.1324H44.1359H44.1394H44.1429H44.1464H44.1498H44.1533H44.1568H44.1603H44.1638H44.1673H44.1708H44.1743H44.1778H44.1813H44.1848H44.1883H44.1917H44.1952H44.1987H44.2022H44.2057H44.2092H44.2127H44.2162H44.2197H44.2232H44.2267H44.2301H44.2336H44.2371H44.2406H44.2441H44.2476H44.2511H44.2546H44.2581H44.2616H44.2651H44.2685H44.272H44.2755H44.279H44.2825H44.286H44.2895H44.293H44.2965H44.3H44.3035H44.3069H44.3104H44.3139H44.3174H44.3209H44.3244H44.3279H44.3314H44.3349H44.3384H44.3418H44.3453H44.3488H44.3523H44.3558H44.3593H44.3628H44.3663H44.3698H44.3733H44.3767H44.3802H44.3837H44.3872H44.3907H44.3942H44.3977H44.4012H44.4047H44.4082H44.4116H44.4151H44.4186H44.4221H44.4256H44.4291H44.4326H44.4361H44.4396H44.443H44.4465H44.45H44.4535H44.457H44.4605H44.464H44.4675H44.471H44.4744H44.4779H44.4814H44.4849H44.4884H44.4919H44.4954H44.4989H44.5024H44.5058H44.5093H44.5128H44.5163H44.5198H44.5233H44.5268H44.5303H44.5338H44.5372H44.5407H44.5442H44.5477H44.5512H44.5547H44.5582H44.5617H44.5651H44.5686H44.5721H44.5756H44.5791H44.5826H44.5861H44.5896H44.593H44.5965H44.6H44.6035H44.607H44.6105H44.614H44.6175H44.6209H44.6244H44.6279H44.6314H44.6349H44.6384H44.6419H44.6454H44.6488H44.6523H44.6558H44.6593H44.6628H44.6663H44.6698H44.6732H44.6767H44.6802H44.6837H44.6872H44.6907H44.6942H44.6976H44.7011H44.7046H44.7081H44.7116H44.7151H44.7186H44.722H44.7255H44.729H44.7325H44.736H44.7395H44.743H44.7464H44.7499H44.7534H44.7569H44.7604H44.7639H44.7674H44.7708H44.7743H44.7778H44.7813H44.7848H44.7883H44.7918H44.7952H44.7987H44.8022H44.8057H44.8092H44.8127H44.8161H44.8196H44.8231H44.8266H44.8301H44.8336H44.8371H44.8405H44.844H44.8475H44.851H44.8545H44.858H44.8614H44.8649H44.8684H44.8719H44.8754H44.8789H44.8823H44.8858H44.8893H44.8928H44.8963H44.8998H44.9032H44.9067H44.9102H44.9137H44.9172H44.9207H44.9241H44.9276H44.9311H44.9346H44.9381H44.9415H44.945H44.9485H44.952H44.9555H44.959H44.9624H44.9659H44.9694H44.9729H44.9764H44.9798H44.9833H44.9868H44.9903H44.9938H44.9973H45.0007H45.0042H45.0077H45.0112H45.0147H45.0181H45.0216H45.0251H45.0286H45.0321H45.0355H45.039H45.0425H45.046H45.0495H45.0529H45.0564H45.0599H45.0634H45.0669H45.0703H45.0738H45.0773H45.0808H45.0843H45.0877H45.0912H45.0947H45.0982H45.1017H45.1051H45.1086H45.1121H45.1156H45.1191H45.1225H45.126H45.1295H45.133H45.1364H45.1399H45.1434H45.1469H45.1504H45.1538H45.1573H45.1608H45.1643H45.1678H45.1712H45.1747H45.1782H45.1817H45.1851H45.1886H45.1921H45.1956H45.1991H45.2025H45.206H45.2095H45.213H45.2164H45.2199H45.2234H45.2269H45.2303H45.2338H45.2373H45.2408H45.2442H45.2477H45.2512H45.2547H45.2582H45.2616H45.2651H45.2686H45.2721H45.2755H45.279H45.2825H45.286H45.2894H45.2929H45.2964H45.2999H45.3033H45.3068H45.3103H45.3138H45.3172H45.3207H45.3242H45.3277H45.3311H45.3346H45.3381H45.3416H45.345H45.3485H45.352H45.3554H45.3589H45.3624H45.3659H45.3693H45.3728H45.3763H45.3798H45.3832H45.3867H45.3902H45.3937H45.3971H45.4006H45.4041H45.4075H45.411H45.4145H45.418H45.4214H45.4249V80.3999V79.3999H45.4214H45.418H45.4145H45.411H45.4075H45.4041H45.4006H45.3971H45.3937H45.3902H45.3867H45.3832H45.3798H45.3763H45.3728H45.3693H45.3659H45.3624H45.3589H45.3554H45.352H45.3485H45.345H45.3416H45.3381H45.3346H45.3311H45.3277H45.3242H45.3207H45.3172H45.3138H45.3103H45.3068H45.3033H45.2999H45.2964H45.2929H45.2894H45.286H45.2825H45.279H45.2755H45.2721H45.2686H45.2651H45.2616H45.2582H45.2547H45.2512H45.2477H45.2442H45.2408H45.2373H45.2338H45.2303H45.2269H45.2234H45.2199H45.2164H45.213H45.2095H45.206H45.2025H45.1991H45.1956H45.1921H45.1886H45.1851H45.1817H45.1782H45.1747H45.1712H45.1678H45.1643H45.1608H45.1573H45.1538H45.1504H45.1469H45.1434H45.1399H45.1364H45.133H45.1295H45.126H45.1225H45.1191H45.1156H45.1121H45.1086H45.1051H45.1017H45.0982H45.0947H45.0912H45.0877H45.0843H45.0808H45.0773H45.0738H45.0703H45.0669H45.0634H45.0599H45.0564H45.0529H45.0495H45.046H45.0425H45.039H45.0355H45.0321H45.0286H45.0251H45.0216H45.0181H45.0147H45.0112H45.0077H45.0042H45.0007H44.9973H44.9938H44.9903H44.9868H44.9833H44.9798H44.9764H44.9729H44.9694H44.9659H44.9624H44.959H44.9555H44.952H44.9485H44.945H44.9415H44.9381H44.9346H44.9311H44.9276H44.9241H44.9207H44.9172H44.9137H44.9102H44.9067H44.9032H44.8998H44.8963H44.8928H44.8893H44.8858H44.8823H44.8789H44.8754H44.8719H44.8684H44.8649H44.8614H44.858H44.8545H44.851H44.8475H44.844H44.8405H44.8371H44.8336H44.8301H44.8266H44.8231H44.8196H44.8161H44.8127H44.8092H44.8057H44.8022H44.7987H44.7952H44.7918H44.7883H44.7848H44.7813H44.7778H44.7743H44.7708H44.7674H44.7639H44.7604H44.7569H44.7534H44.7499H44.7464H44.743H44.7395H44.736H44.7325H44.729H44.7255H44.722H44.7186H44.7151H44.7116H44.7081H44.7046H44.7011H44.6976H44.6942H44.6907H44.6872H44.6837H44.6802H44.6767H44.6732H44.6698H44.6663H44.6628H44.6593H44.6558H44.6523H44.6488H44.6454H44.6419H44.6384H44.6349H44.6314H44.6279H44.6244H44.6209H44.6175H44.614H44.6105H44.607H44.6035H44.6H44.5965H44.593H44.5896H44.5861H44.5826H44.5791H44.5756H44.5721H44.5686H44.5651H44.5617H44.5582H44.5547H44.5512H44.5477H44.5442H44.5407H44.5372H44.5338H44.5303H44.5268H44.5233H44.5198H44.5163H44.5128H44.5093H44.5058H44.5024H44.4989H44.4954H44.4919H44.4884H44.4849H44.4814H44.4779H44.4744H44.471H44.4675H44.464H44.4605H44.457H44.4535H44.45H44.4465H44.443H44.4396H44.4361H44.4326H44.4291H44.4256H44.4221H44.4186H44.4151H44.4116H44.4082H44.4047H44.4012H44.3977H44.3942H44.3907H44.3872H44.3837H44.3802H44.3767H44.3733H44.3698H44.3663H44.3628H44.3593H44.3558H44.3523H44.3488H44.3453H44.3418H44.3384H44.3349H44.3314H44.3279H44.3244H44.3209H44.3174H44.3139H44.3104H44.3069H44.3035H44.3H44.2965H44.293H44.2895H44.286H44.2825H44.279H44.2755H44.272H44.2685H44.2651H44.2616H44.2581H44.2546H44.2511H44.2476H44.2441H44.2406H44.2371H44.2336H44.2301H44.2267H44.2232H44.2197H44.2162H44.2127H44.2092H44.2057H44.2022H44.1987H44.1952H44.1917H44.1883H44.1848H44.1813H44.1778H44.1743H44.1708H44.1673H44.1638H44.1603H44.1568H44.1533H44.1498H44.1464H44.1429H44.1394H44.1359H44.1324H44.1289H44.1254H44.1219H44.1184H44.1149H44.1114H44.1079H44.1045H44.101H44.0975H44.094H44.0905H44.087H44.0835H44.08H44.0765H44.073H44.0695H44.066H44.0626H44.0591H44.0556H44.0521H44.0486H44.0451H44.0416H44.0381H44.0346H44.0311H44.0276H44.0241H44.0207H44.0172H44.0137H44.0102H44.0067H44.0032H43.9997H43.9962H43.9927H43.9892H43.9857H43.9822H43.9787H43.9753H43.9718H43.9683H43.9648H43.9613H43.9578H43.9543H43.9508H43.9473H43.9438H43.9403H43.9368H43.9333H43.9299H43.9264H43.9229H43.9194H43.9159H43.9124H43.9089H43.9054H43.9019H43.8984H43.8949H43.8914H43.8879H43.8845H43.881H43.8775H43.874H43.8705H43.867H43.8635H43.86H43.8565H43.853H43.8495H43.846H43.8425H43.839H43.8356H43.8321H43.8286H43.8251H43.8216H43.8181H43.8146H43.8111H43.8076H43.8041H43.8006H43.7971H43.7936H43.7902H43.7867H43.7832H43.7797H43.7762H43.7727H43.7692H43.7657H43.7622H43.7587H43.7552H43.7517H43.7482H43.7447H43.7413H43.7378H43.7343H43.7308H43.7273H43.7238H43.7203H43.7168H43.7133H43.7098H43.7063H43.7028H43.6993H43.6959H43.6924H43.6889H43.6854H43.6819H43.6784H43.6749H43.6714H43.6679H43.6644H43.6609H43.6574H43.6539H43.6504H43.647H43.6435H43.64H43.6382H43.6363H43.6345H43.6327H43.6309H43.6291H43.6273H43.6255H43.6237H43.6219H43.6201H43.6183H43.6165H43.6147H43.6129H43.6111H43.6093H43.6075H43.6057H43.6039H43.6022H43.6004H43.5986H43.5968H43.5951H43.5933H43.5915H43.5897H43.588H43.5862H43.5844H43.5827H43.5809H43.5792H43.5774H43.5756H43.5739H43.5721H43.5704H43.5686H43.5669H43.5651H43.5634H43.5617H43.5599H43.5582H43.5564H43.5547H43.553H43.5512H43.5495H43.5478H43.5461H43.5443H43.5426H43.5409H43.5392H43.5375H43.5357H43.534H43.5323H43.5306H43.5289H43.5272H43.5255H43.5238H43.5221H43.5204H43.5187H43.517H43.5153H43.5136H43.5119H43.5102H43.5085H43.5069H43.5052H43.5035H43.5018H43.5001H43.4985H43.4968H43.4951H43.4935H43.4918H43.4901H43.4884H43.4868H43.4851H43.4835H43.4818H43.4801H43.4785H43.4768H43.4752H43.4735H43.4719H43.4702H43.4686H43.467H43.4653H43.4637H43.462H43.4604H43.4588H43.4571H43.4555H43.4539H43.4523H43.4506H43.449H43.4474H43.4458H43.4442H43.4425H43.4409H43.4393H43.4377H43.4361H43.4345H43.4329H43.4313H43.4297H43.4281H43.4265H43.4249H43.4233H43.4217H43.4201H43.4185H43.4169H43.4154H43.4138H43.4122H43.4106H43.409H43.4075H43.4059H43.4043H43.4027H43.4012H43.3996H43.398H43.3965H43.3949H43.3933H43.3918H43.3902H43.3887H43.3871H43.3856H43.384H43.3825H43.3809H43.3794H43.3778H43.3763H43.3748H43.3732H43.3717H43.3701H43.3686H43.3671H43.3656H43.364H43.3625H43.361H43.3595H43.3579H43.3564H43.3549H43.3534H43.3519H43.3504H43.3489H43.3474H43.3458H43.3443H43.3428H43.3413H43.3398H43.3383H43.3369H43.3354H43.3339H43.3324H43.3309H43.3294H43.3279H43.3264H43.325H43.3235H43.322H43.3205H43.3191H43.3176H43.3161H43.3146H43.3132H43.3117H43.3103H43.3088H43.3073H43.3059H43.3044H43.303H43.3015H43.3001H43.2986H43.2972H43.2957H43.2943H43.2928H43.2914H43.29H43.2885H43.2871H43.2857H43.2842H43.2828H43.2814H43.2799H43.2785H43.2771H43.2757H43.2743H43.2728H43.2714H43.27H43.2686H43.2672H43.2658H43.2644H43.263H43.2616H43.2602H43.2588H43.2574H43.256H43.2546H43.2532H43.2518H43.2504H43.249H43.2476H43.2463H43.2449H43.2435H43.2421H43.2408H43.2394H43.238H43.2366H43.2353H43.2339H43.2325H43.2312H43.2298H43.2285H43.2271H43.2257H43.2244H43.223H43.2217H43.2203H43.219H43.2176H43.2163H43.215H43.2136H43.2123H43.2109H43.2096H43.2083H43.2069H43.2056H43.2043H43.203H43.2016H43.2003H43.199H43.1977H43.1963H43.195H43.1937H43.1924H43.1911H43.1898H43.1885H43.1872H43.1859H43.1846H43.1833H43.182H43.1807H43.1794H43.1781H43.1768H43.1755H43.1742H43.1729H43.1717H43.1704H43.1691H43.1678H43.1665H43.1653H43.164H43.1627H43.1615H43.1602H43.1589H43.1577H43.1564H43.1551H43.1539H43.1526H43.1514H43.1501H43.1489H43.1476H43.1464H43.1451H43.1439H43.1426H43.1414H43.1402H43.1389H43.1377H43.1364H43.1352H43.134H43.1328H43.1315H43.1303H43.1291H43.1279H43.1266H43.1254H43.1242H43.123H43.1218H43.1206H43.1194H43.1182H43.117H43.1157H43.1145H43.1133H43.1121H43.111H43.1098H43.1086H43.1074H43.1062H43.105H43.1038H43.1026H43.1014H43.1003H43.0991H43.0979H43.0967H43.0956H43.0944H43.0932H43.0921H43.0909H43.0897H43.0886H43.0874H43.0862H43.0851H43.0839H43.0828H43.0816H43.0805H43.0793H43.0782H43.077H43.0759H43.0747H43.0736H43.0725H43.0713H43.0702H43.0691H43.0679H43.0668H43.0657H43.0646H43.0634H43.0623H43.0612H43.0601H43.059H43.0578H43.0567H43.0556H43.0545H43.0534H43.0523H43.0512H43.0501H43.049H43.0479H43.0468H43.0457H43.0446H43.0435H43.0424H43.0413H43.0402H43.0392H43.0381H43.037H43.0359H43.0348H43.0338H43.0327H43.0316H43.0306H43.0295H43.0284H43.0274H43.0263H43.0252H43.0242H43.0231H43.0221H43.021H43.0199H43.0189H43.0178H43.0168H43.0158H43.0147H43.0137H43.0126H43.0116H43.0106H43.0095H43.0085H43.0075H43.0064H43.0054H43.0044H43.0034H43.0023H43.0013H43.0003H42.9993H42.9983H42.9972H42.9962H42.9952H42.9942H42.9932H42.9922H42.9912H42.9902H42.9892H42.9882H42.9872H42.9862H42.9852H42.9842H42.9832H42.9823H42.9813H42.9803H42.9793H42.9783H42.9774H42.9764H42.9754H42.9744H42.9735H42.9725H42.9715H42.9706H42.9696H42.9686H42.9677H42.9667H42.9658H42.9648H42.9638H42.9629H42.9619H42.961H42.9601H42.9591H42.9582H42.9572H42.9563H42.9554H42.9544H42.9535H42.9526H42.9516H42.9507H42.9498H42.9488H42.9479H42.947H42.9461H42.9452H42.9442H42.9433H42.9424H42.9415H42.8639H42.8623H42.8606H42.859H42.8574H42.8557H42.8541H42.8524H42.8508H42.8492H42.8475H42.8459H42.8442H42.8426H42.8409H42.8393H42.8377H42.836H42.8344H42.8327H42.8311H42.8295H42.8278H42.8262H42.8245H42.8229H42.8212H42.8196H42.8179H42.8163H42.8147H42.813H42.8114H42.8097H42.8081H42.8064H42.8048H42.8031H42.8015H42.7999H42.7982H42.7966H42.7949H42.7933H42.7916H42.79H42.7883H42.7867H42.785H42.7834H42.7817H42.7801H42.7785H42.7768H42.7752H42.7735H42.7719H42.7702H42.7686H42.7669H42.7653H42.7636H42.762H42.7603H42.7587H42.757H42.7554H42.7537H42.7521H42.7504H42.7488H42.7471H42.7455H42.7438H42.7422H42.7405H42.7389H42.7372H42.7356H42.7339H42.7323H42.7306H42.729H42.7273H42.7257H42.724H42.7224H42.7207H42.719H42.7174H42.7157H42.7141H42.7124H42.7108H42.7091H42.7075H42.7058H42.7042H42.7025H42.7009H42.6992H42.6975H42.6959H42.6942H42.6926H42.6909H42.6893H42.6876H42.686H42.6843H42.6827H42.681H42.6793H42.6777H42.676H42.6744H42.6727H42.6711H42.6694H42.6677H42.6661H42.6644H42.6628H42.6611H42.6595H42.6578H42.6561H42.6545H42.6528H42.6512H42.6495H42.6479H42.6462H42.6445H42.6429H42.6412H42.6396H42.6379H42.6362H42.6346H42.6329H42.6313H42.6296H42.6279H42.6263H42.6246H42.623H42.6213H42.6196H42.618H42.6163H42.6147H42.613H42.6113H42.6097H42.608H42.6064H42.6047H42.603H42.6014H42.5997H42.598H42.5964H42.5947H42.5931H42.5914H42.5897H42.5881H42.5864H42.5847H42.5831H42.5814H42.5798H42.5781H42.5764H42.5748H42.5731H42.5714H42.5698H42.5681H42.5664H42.5648H42.5631H42.5615H42.5598H42.5581H42.5565H42.5548H42.5531H42.5515H42.5498H42.5481H42.5465H42.5448H42.5431H42.5415H42.5398H42.5381H42.5365H42.5348H42.5331H42.5315H42.5298H42.5281H42.5265H42.5248H42.5231H42.5215H42.5198H42.5181H42.5165H42.5148H42.5131H42.5115H42.5098H42.5081H42.5065H42.5048H42.5031H42.5015H42.4998H42.4981H42.4965H42.4948H42.4931H42.4915H42.4898H42.4881H42.4865H42.4848H42.4831H42.4815H42.4798H42.4781H42.4764H42.4748H42.4731H42.4714H42.4698H42.4681H42.4664H42.4648H42.4631H42.4614H42.4597H42.4581H42.4564H42.4547H42.4531H42.4514H42.4497H42.4481H42.4464H42.4447H42.443H42.4414H42.4397H42.438H42.4364H42.4347H42.433H42.4313H42.4297H42.428H42.4263H42.4247H42.423H42.4213H42.4196H42.418H42.4163H42.4146H42.413H42.4113H42.4096H42.4079H42.4063H42.4046H42.4029H42.4012H42.3996H42.3979H42.3962H42.3946H42.3929H42.3912H42.3895H42.3879H42.3862H42.3845H42.3828H42.3812H42.3795H42.3778H42.3761H42.3745H42.3728H42.3711H42.3694H42.3678H42.3661H42.3644H42.3627H42.3611H42.3594H42.3577H42.356H42.3544H42.3527H42.351H42.3494H42.3477H42.346H42.3443H42.3426H42.341H42.3393H42.3376H42.3359H42.3343H42.3326H42.3309H42.3292H42.3276H42.3259H42.3242H42.3225H42.3209H42.3192H42.3175H42.3158H42.3142H42.3125H42.3108H42.3091H42.3075H42.3058H42.3041H42.3024H42.3008H42.2991H42.2974H42.2957H42.294H42.2924H42.2907H42.289H42.2873H42.2857H42.284H42.2823H42.2806H42.279H42.2773H42.2756H42.2739H42.2722H42.2706H42.2689H42.2672H42.2655H42.2639H42.2622H42.2605H42.2588H42.2571H42.2555H42.2538H42.2521H42.2504H42.2488H42.2471H42.2454H42.2437H42.242H42.2404H42.2387H42.237H42.2353H42.2337H42.232H42.2303H42.2286H42.2269H42.2253H42.2236H42.2219H42.2202H42.2185H42.2169H42.2152H42.2135H42.2118H42.2102H42.2085H42.2068H42.2051H42.2034H42.2018H42.2001H42.1984H42.1967H42.195H42.1934H42.1917H42.19H42.1883H42.1866H42.185H42.1833H42.1816H42.1799H42.1782H42.1766H42.1749H42.1732H42.1715H42.1698H42.1682H42.1665H42.1648H42.1631H42.1615H42.1598H42.1581H42.1564H42.1547H42.1531H42.1514H42.1497H42.148H42.1463H42.1447H42.143H42.1413H42.1396H42.1379H42.1363H42.1346H42.1329H42.1312H42.1295H42.1279H42.1262H42.1245H42.1228H42.1211H42.1195H42.1178H42.1161H42.1144H42.1127H42.1111H42.1094H42.1077H42.106H42.1043H42.1027H42.101H42.0993H42.0976H42.0959H42.0943H42.0926H42.0909H42.0892H42.0875H42.0859H42.0842H42.0825H42.0808H42.0791H42.0775H42.0758H42.0741H42.0724H42.0707H42.069H42.0674H42.0657H42.064H42.0623H42.0606H42.059H42.0573H42.0556H42.0539H42.0522H42.0506H42.0489H42.0472H42.0455H42.0438H42.0422H42.0405H42.0388H42.0371H42.0354H42.0338H42.0321H42.0304H42.0287H42.027H42.0254H42.0237H42.022H42.0203H42.0186H42.017H42.0153H42.0136H42.0119H42.0102V80.3999V81.3999Z" fill="#007172" stroke="black" stroke-width="2"/>
<path d="M142.035 2V1H141.035H22.8072C20.3482 1 18.0183 2.10366 16.3209 4.01945C14.6271 5.93131 13.6928 8.50103 13.6928 11.1589V70.5972C13.6849 71.9937 13.9212 73.3804 14.3901 74.6788C14.8594 75.9782 15.5538 77.1674 16.4388 78.1757C17.324 79.1843 18.3835 79.993 19.5603 80.5491C20.7376 81.1053 22.0058 81.3959 23.2909 81.4H23.2941H40.7981C41.1128 81.4137 41.4273 81.3896 41.736 81.3286C41.7858 81.3367 41.8306 81.3414 41.8684 81.3442C42.0055 81.3545 42.1315 81.3464 42.2163 81.339C42.2734 81.334 42.3448 81.326 42.3944 81.3204C42.4119 81.3185 42.4268 81.3168 42.4373 81.3157C42.4653 81.3127 42.4859 81.3108 42.5022 81.3096C42.51 81.3091 42.5158 81.3087 42.5199 81.3086C42.524 81.3084 42.5257 81.3084 42.5254 81.3084H42.5402L42.5549 81.308C43.1428 81.2906 43.7312 81.3174 44.3161 81.3883C45.8613 81.6948 46.8237 82.5903 47.4549 83.7166C48.0999 84.8677 48.3852 86.246 48.5038 87.4107V108.243C48.5038 111.484 49.6434 114.613 51.7024 116.937C53.765 119.265 56.5902 120.6 59.5658 120.6H74.253C77.2286 120.6 80.0538 119.265 82.1163 116.937C84.1754 114.613 85.3149 111.484 85.3149 108.243V91.6654C85.3149 88.4246 84.1754 85.2958 82.1163 82.9717C80.0538 80.6437 77.2286 79.3084 74.253 79.3084H59.5845C59.1585 79.293 58.7322 79.3135 58.3095 79.3697C58.2192 79.3391 58.0933 79.3084 57.9429 79.3084H55.9143C54.6117 79.3084 53.674 78.9504 52.9773 78.4307C52.2688 77.9021 51.7489 77.1602 51.3716 76.3085C50.6063 74.5809 50.5038 72.5769 50.5038 71.6075V50.9084V50.9076C50.5015 48.105 49.5152 45.3972 47.7307 43.3831C47.3452 42.9479 46.9287 42.5525 46.4867 42.2L132.839 42.2L132.844 42.2C135.32 42.189 137.664 41.0729 139.374 39.1431C141.08 37.2171 142.026 34.6311 142.035 31.953V31.9495V2Z" fill="#007172" stroke="black" stroke-width="2"/>
<path d="M55.6693 81.3999H55.6718H55.6743H55.6768H55.6793H55.6818H55.6843H55.6868H55.6892H55.6917H55.6942H55.6966H55.6991H55.7016H55.704H55.7065H55.7089H55.7114H55.7138H55.7163H55.7187H55.7211H55.7236H55.726H55.7284H55.7309H55.7333H55.7357H55.7381H55.7405H55.7429H55.7454H55.7478H55.7502H55.7526H55.755H55.7574H55.7597H55.7621H55.7645H55.7669H55.7693H55.7717H55.774H55.7764H55.7788H55.7811H55.7835H55.7859H55.7882H55.7906H55.7929H55.7953H55.7976H55.8H55.8023H55.8046H55.807H55.8093H55.8117H55.814H55.8163H55.8186H55.821H55.8233H55.8256H55.8279H55.8302H55.8325H55.8348H55.8371H55.8394H55.8417H55.844H55.8463H55.8486H55.8509H55.8532H55.8555H55.8578H55.8601H55.8624H55.8646H55.8669H55.8692H55.8714H55.8737H55.876H55.8782H55.8805H55.8828H55.885H55.8873H55.8895H55.8918H55.894H55.8963H55.8985H55.9008H55.903H55.9053H55.9075H55.9097H55.912H55.9142H55.9164H55.9187H55.9209H55.9231H55.9253H55.9276H55.9298H55.932H55.9342H55.9364H55.9386H55.9408H55.943H55.9453H55.9475H55.9497H55.9519H55.9541H55.9563H55.9585H55.9606H55.9628H55.965H55.9672H55.9694H55.9716H55.9738H55.976H55.9781H55.9803H55.9825H55.9847H55.9869H55.989H55.9912H55.9934H55.9955H55.9977H55.9999H56.002H56.0042H56.0064H56.0085H56.0107H56.0128H56.015H56.0171H56.0193H56.0215H56.0236H56.0258H56.0279H56.0301H56.0322H56.0343H56.0365H56.0386H56.0408H56.0429H56.045H56.0472H56.0493H56.0515H56.0536H56.0557H56.0579H56.06H56.0621H56.0642H56.0664H56.0685H56.0706H56.0727H56.0749H56.077H56.0791H56.0812H56.0834H56.0855H56.0876H56.0897H56.0918H56.0939H56.0961H56.0982H56.1003H56.1024H56.1045H56.1066H56.1087H56.1108H56.1129H56.115H56.1171H56.1193H56.1214H56.1235H56.1256H56.1277H56.1298H56.1319H56.134H56.1361H56.1382H56.1403H56.1424H56.1445H56.1466H56.1487H56.1507H56.1528H56.1549H56.157H56.1591H56.1612H56.1633H56.1654H56.1675H56.1696H56.1717H56.1738H56.1759H56.1779H56.18H56.1821H56.1842H56.1863H56.1884H56.1905H56.1926H56.1947H56.1967H56.1988H56.2009H56.203H56.2051H56.2072H56.2093H56.2113H56.2134H56.2155H56.2176H56.2197H56.2218H56.2239H56.2259H56.228H56.2301H56.2322H56.2343H56.2364H56.2384H56.2405H56.2426H56.2447H56.2468H56.2489H56.2509H56.253H56.2551H56.2572H56.2593H56.2614H56.2635H56.2655H56.2676H56.2697H56.2718H56.2739H56.276H56.2781H56.2801H56.2822H56.2843H56.2864H56.2885H56.2906H56.2927H56.2948H56.2968H56.2989H56.301H56.3031H56.3052H56.3073H56.3094H56.3115H56.3136H56.3157H56.3178H56.3198H56.3219H56.324H56.3261H56.3282H56.3303H56.3324H56.3345H56.3366H56.3387H56.3408H56.3429H56.345H56.3471H56.3492H56.3513H56.3534H56.3555H56.3576H56.3597H56.3618H56.3639H56.3661H56.3682H56.3703H56.3724H56.3745H56.3766H56.3787H56.3808H56.3829H56.3851H56.3872H56.3893H56.3914H56.3935H56.3956H56.3978H56.3999H56.402H56.4041H56.4063H56.4084H56.4105H56.4126H56.4148H56.4169H56.419H56.4212H56.4233H56.4254H56.4276H56.4297H56.4318H56.434H56.4361H56.4383H56.4404H56.4425H56.4447H56.4468H56.449H56.4511H56.4533H56.4554H56.4576H56.4597H56.4619H56.464H56.4662H56.4684H56.4705H56.4727H56.4748H56.477H56.4792H56.4813H56.4835H56.4857H56.4879H56.49H56.4922H56.4944H56.4966H56.4987H56.5009H56.5031H56.5053H56.5075H56.5097H56.5118H56.514H56.5162H56.5184H56.5206H56.5228H56.525H56.5272H56.5294H56.5316H56.5338H56.536H56.5383H56.5405H56.5427H56.5449H56.5471H56.5493H56.5515H56.5538H56.556H56.5582H56.5604H56.5627H56.5649H56.5671H56.5694H56.5716H56.5739H56.5761H56.5783H56.5806H56.5828H56.5851H56.5873H56.5896H56.5919H56.5941H56.5964H56.5986H56.6009H56.6032H56.6054H56.6077H56.61H56.6123H56.6145H56.6168H56.6191H56.6214H56.6237H56.626H56.6282H56.6305H56.6328H56.6351H56.6374H56.6397H56.642H56.6444H56.6467H56.649H56.6513H56.6536H56.6559H56.6582H56.6606H56.6629H56.6652H56.6676H56.6699H56.6722H56.6746H56.6769H56.6793H56.6816H56.684H56.6863H56.6887H56.691H56.6934H56.6957H56.6981H56.7005H56.7029H56.7052H56.7076H56.71H56.7124H56.7148H56.7171H56.7195H56.7219H56.7243H56.7267H56.7291H56.7315H56.7339H56.7363H56.7388H56.7412H56.7436H56.746H56.7484H56.7509H56.7533H56.7557H56.7582H56.7606H56.7631H56.7655H56.7679H56.7704H56.7729H56.7753H56.7778H56.7802H56.7827H56.7852H56.7877H56.7901H56.7926H56.7951H56.7976H56.8001H56.8026H56.8051H56.8076H56.812H56.8165H56.8209H56.8254H56.8299H56.8343H56.8388H56.8433H56.8477H56.8522H56.8567H56.8611H56.8656H56.8701H56.8745H56.879H56.8834H56.8879H56.8924H56.8968H56.9013H56.9058H56.9102H56.9147H56.9192H56.9236H56.9281H56.9326H56.937H56.9415H56.946H56.9504H56.9549H56.9594H56.9638H56.9683H56.9728H56.9772H56.9817H56.9861H56.9906H56.9951H56.9995H57.004H57.0085H57.0129H57.0174H57.0219H57.0263H57.0308H57.0353H57.0397H57.0442H57.0487H57.0531H57.0576H57.0621H57.0665H57.071H57.0755H57.0799H57.0844H57.0889H57.0933H57.0978H57.1023H57.1067H57.1112H57.1157H57.1201H57.1246H57.1291H57.1335H57.138H57.1425H57.1469H57.1514H57.1559H57.1603H57.1648H57.1693H57.1737H57.1782H57.1827H57.1871H57.1916H57.1961H57.2005H57.205H57.2095H57.2139H57.2184H57.2229H57.2274H57.2318H57.2363H57.2408H57.2452H57.2497H57.2542H57.2586H57.2631H57.2676H57.272H57.2765H57.281H57.2854H57.2899H57.2944H57.2988H57.3033H57.3078H57.3122H57.3167H57.3212H57.3256H57.3301H57.3346H57.339H57.3435H57.348H57.3524H57.3569H57.3614H57.3658H57.3703H57.3748H57.3792H57.3837H57.3882H57.3926H57.3971H57.4016H57.406H57.4105H57.415H57.4194H57.4239H57.4284H57.4328H57.4373H57.4418H57.4462H57.4507H57.4551H57.4596H57.4641H57.4685H57.473H57.4775H57.4819H57.4864H57.4909H57.4953H57.4998H57.5043H57.5087H57.5132H57.5177H57.5221H57.5266H57.5311H57.5355H57.54H57.5445H57.5489H57.5534H57.5578H57.5623H57.5668H57.5712H57.5757H57.5802H57.5846H57.5891H57.5936H57.598H57.6025H57.607H57.6114H57.6159H57.6203H57.6248H57.6293H57.6337H57.6382H57.6427H57.6471H57.6516H57.656H57.6605H57.665H57.6694H57.6739H57.6784H57.6828H57.6873H57.6917H57.6962H57.7007H57.7051H57.7096H57.7141H57.7185H57.723H57.7274H57.7319H57.7364H57.7408H57.7453H57.7498H57.7542H57.7587H57.7631H57.7676H57.7721H57.7765H57.781H57.7854H57.7899H57.7944H57.7988H57.8033H57.8077H57.8122H57.8167H57.8211H57.8256H57.83H57.8345H57.8389H57.8434H57.8479H57.8523H57.8568H57.8612H57.8657H57.8702H57.8746H57.8791H57.8835H57.888H57.8924H57.8969H57.9014H57.9058H57.9103H57.9147H57.9192H57.9236H57.9281H57.9326H57.937H57.9415H57.9459H57.9504H57.9548H57.9593H57.9637H57.9682H57.9727H57.9771H57.9816H57.986H57.9905H57.9949H57.9994H58.0038H58.0083H58.0127H58.0172H58.0216H58.0261H58.0305H58.035H58.0395H58.0439H58.0484H58.0528H58.0573H58.0617H58.0662H58.0706H58.0751H58.0795H58.084H58.0884H58.0929H58.0973H58.1018H58.1062H58.1107H58.1151H58.1196H58.124H58.1285H58.1329H58.1374H58.1418H58.1463H58.1507H58.1552H58.1596H58.1641H58.1685H58.173H58.1774H58.1818H58.1863H58.1907H58.1952H58.1996H58.2041H58.2085H58.213H58.2174H58.2219H58.2263H58.2308H58.2352H58.2396H58.2441H58.2485H58.253H58.2574H58.2619H58.2663H58.2708H58.2752H58.2796H58.2841H58.2885H58.293H58.2974H58.3018H58.3063H58.3107H58.3152H58.3196H58.3241H58.3285H58.3329H58.3374H58.3418H58.3463H58.3507H58.3551H58.3596H58.364H58.3684H58.3729H58.3773H58.3818H58.3862H58.3906H58.3951H58.3995H58.4039H58.4084H58.4128H58.4173H58.4217H58.4261H58.4306H58.435H58.4394H58.4439H58.4483H58.4527H58.4572H58.4616H58.466H58.4705H58.4749H58.4793H58.4838H58.4882H58.4926H58.4971H58.5015H58.5059H58.5104H58.5148H58.5192H58.5237H58.5281H58.5325H58.5369H58.5414H58.5458H58.5502H58.5547H58.5591H58.5635H58.5679H58.5724H58.5768H58.5812H58.5857H58.5901H58.5945H58.5989H58.6034H58.6078H58.6122H58.6166H58.6211H58.6255H58.6299H58.6343H58.6388H58.6432H58.6476H58.652H58.6564H58.6609H58.6653H58.6697H58.6741H58.6786H58.683H58.6874H58.6918H58.6962H58.7007H58.7051H58.7095H58.7139H58.7183H58.7228H58.7272H58.7316H58.736H58.7404H58.7448H58.7493H58.7537H58.7581H58.7625H58.7669H58.7713H58.7757H58.7802H58.7846H58.789H58.7934H58.7978H58.8022H58.8066H58.8111H58.8155H58.8199H58.8243H58.8287H58.8331H58.8375H58.8419H58.8463H58.8508H58.8552H58.8596H58.864H58.8684H58.8728H58.8772H58.8816H58.886H58.8904H58.8948H58.8992H58.9036H58.908H58.9125H58.9169H58.9213H58.9257H58.9301H58.9345H58.9389H58.9433H58.9477H58.9521H58.9565H58.9609H58.9653H58.9697H58.9741H58.9785H58.9829H58.9873H58.9917H58.9961H59.0005H59.0049H59.0093H59.0137H59.0181H59.0225H59.0269H59.0313H59.0357H59.0401H59.0445H59.0488H59.0532H59.0576H59.062H59.0664H59.0708H59.0752H59.0796H59.084V80.3999V79.3999H59.0796H59.0752H59.0708H59.0664H59.062H59.0576H59.0532H59.0488H59.0445H59.0401H59.0357H59.0313H59.0269H59.0225H59.0181H59.0137H59.0093H59.0049H59.0005H58.9961H58.9917H58.9873H58.9829H58.9785H58.9741H58.9697H58.9653H58.9609H58.9565H58.9521H58.9477H58.9433H58.9389H58.9345H58.9301H58.9257H58.9213H58.9169H58.9125H58.908H58.9036H58.8992H58.8948H58.8904H58.886H58.8816H58.8772H58.8728H58.8684H58.864H58.8596H58.8552H58.8508H58.8463H58.8419H58.8375H58.8331H58.8287H58.8243H58.8199H58.8155H58.8111H58.8066H58.8022H58.7978H58.7934H58.789H58.7846H58.7802H58.7757H58.7713H58.7669H58.7625H58.7581H58.7537H58.7493H58.7448H58.7404H58.736H58.7316H58.7272H58.7228H58.7183H58.7139H58.7095H58.7051H58.7007H58.6962H58.6918H58.6874H58.683H58.6786H58.6741H58.6697H58.6653H58.6609H58.6564H58.652H58.6476H58.6432H58.6388H58.6343H58.6299H58.6255H58.6211H58.6166H58.6122H58.6078H58.6034H58.5989H58.5945H58.5901H58.5857H58.5812H58.5768H58.5724H58.5679H58.5635H58.5591H58.5547H58.5502H58.5458H58.5414H58.5369H58.5325H58.5281H58.5237H58.5192H58.5148H58.5104H58.5059H58.5015H58.4971H58.4926H58.4882H58.4838H58.4793H58.4749H58.4705H58.466H58.4616H58.4572H58.4527H58.4483H58.4439H58.4394H58.435H58.4306H58.4261H58.4217H58.4173H58.4128H58.4084H58.4039H58.3995H58.3951H58.3906H58.3862H58.3818H58.3773H58.3729H58.3684H58.364H58.3596H58.3551H58.3507H58.3463H58.3418H58.3374H58.3329H58.3285H58.3241H58.3196H58.3152H58.3107H58.3063H58.3018H58.2974H58.293H58.2885H58.2841H58.2796H58.2752H58.2708H58.2663H58.2619H58.2574H58.253H58.2485H58.2441H58.2396H58.2352H58.2308H58.2263H58.2219H58.2174H58.213H58.2085H58.2041H58.1996H58.1952H58.1907H58.1863H58.1818H58.1774H58.173H58.1685H58.1641H58.1596H58.1552H58.1507H58.1463H58.1418H58.1374H58.1329H58.1285H58.124H58.1196H58.1151H58.1107H58.1062H58.1018H58.0973H58.0929H58.0884H58.084H58.0795H58.0751H58.0706H58.0662H58.0617H58.0573H58.0528H58.0484H58.0439H58.0395H58.035H58.0305H58.0261H58.0216H58.0172H58.0127H58.0083H58.0038H57.9994H57.9949H57.9905H57.986H57.9816H57.9771H57.9727H57.9682H57.9637H57.9593H57.9548H57.9504H57.9459H57.9415H57.937H57.9326H57.9281H57.9236H57.9192H57.9147H57.9103H57.9058H57.9014H57.8969H57.8924H57.888H57.8835H57.8791H57.8746H57.8702H57.8657H57.8612H57.8568H57.8523H57.8479H57.8434H57.8389H57.8345H57.83H57.8256H57.8211H57.8167H57.8122H57.8077H57.8033H57.7988H57.7944H57.7899H57.7854H57.781H57.7765H57.7721H57.7676H57.7631H57.7587H57.7542H57.7498H57.7453H57.7408H57.7364H57.7319H57.7274H57.723H57.7185H57.7141H57.7096H57.7051H57.7007H57.6962H57.6917H57.6873H57.6828H57.6784H57.6739H57.6694H57.665H57.6605H57.656H57.6516H57.6471H57.6427H57.6382H57.6337H57.6293H57.6248H57.6203H57.6159H57.6114H57.607H57.6025H57.598H57.5936H57.5891H57.5846H57.5802H57.5757H57.5712H57.5668H57.5623H57.5578H57.5534H57.5489H57.5445H57.54H57.5355H57.5311H57.5266H57.5221H57.5177H57.5132H57.5087H57.5043H57.4998H57.4953H57.4909H57.4864H57.4819H57.4775H57.473H57.4685H57.4641H57.4596H57.4551H57.4507H57.4462H57.4418H57.4373H57.4328H57.4284H57.4239H57.4194H57.415H57.4105H57.406H57.4016H57.3971H57.3926H57.3882H57.3837H57.3792H57.3748H57.3703H57.3658H57.3614H57.3569H57.3524H57.348H57.3435H57.339H57.3346H57.3301H57.3256H57.3212H57.3167H57.3122H57.3078H57.3033H57.2988H57.2944H57.2899H57.2854H57.281H57.2765H57.272H57.2676H57.2631H57.2586H57.2542H57.2497H57.2452H57.2408H57.2363H57.2318H57.2274H57.2229H57.2184H57.2139H57.2095H57.205H57.2005H57.1961H57.1916H57.1871H57.1827H57.1782H57.1737H57.1693H57.1648H57.1603H57.1559H57.1514H57.1469H57.1425H57.138H57.1335H57.1291H57.1246H57.1201H57.1157H57.1112H57.1067H57.1023H57.0978H57.0933H57.0889H57.0844H57.0799H57.0755H57.071H57.0665H57.0621H57.0576H57.0531H57.0487H57.0442H57.0397H57.0353H57.0308H57.0263H57.0219H57.0174H57.0129H57.0085H57.004H56.9995H56.9951H56.9906H56.9861H56.9817H56.9772H56.9728H56.9683H56.9638H56.9594H56.9549H56.9504H56.946H56.9415H56.937H56.9326H56.9281H56.9236H56.9192H56.9147H56.9102H56.9058H56.9013H56.8968H56.8924H56.8879H56.8834H56.879H56.8745H56.8701H56.8656H56.8611H56.8567H56.8522H56.8477H56.8433H56.8388H56.8343H56.8299H56.8254H56.8209H56.8165H56.812H56.8076H56.8051H56.8026H56.8001H56.7976H56.7951H56.7926H56.7901H56.7877H56.7852H56.7827H56.7802H56.7778H56.7753H56.7729H56.7704H56.7679H56.7655H56.7631H56.7606H56.7582H56.7557H56.7533H56.7509H56.7484H56.746H56.7436H56.7412H56.7388H56.7363H56.7339H56.7315H56.7291H56.7267H56.7243H56.7219H56.7195H56.7171H56.7148H56.7124H56.71H56.7076H56.7052H56.7029H56.7005H56.6981H56.6957H56.6934H56.691H56.6887H56.6863H56.684H56.6816H56.6793H56.6769H56.6746H56.6722H56.6699H56.6676H56.6652H56.6629H56.6606H56.6582H56.6559H56.6536H56.6513H56.649H56.6467H56.6444H56.642H56.6397H56.6374H56.6351H56.6328H56.6305H56.6282H56.626H56.6237H56.6214H56.6191H56.6168H56.6145H56.6123H56.61H56.6077H56.6054H56.6032H56.6009H56.5986H56.5964H56.5941H56.5919H56.5896H56.5873H56.5851H56.5828H56.5806H56.5783H56.5761H56.5739H56.5716H56.5694H56.5671H56.5649H56.5627H56.5604H56.5582H56.556H56.5538H56.5515H56.5493H56.5471H56.5449H56.5427H56.5405H56.5383H56.536H56.5338H56.5316H56.5294H56.5272H56.525H56.5228H56.5206H56.5184H56.5162H56.514H56.5118H56.5097H56.5075H56.5053H56.5031H56.5009H56.4987H56.4966H56.4944H56.4922H56.49H56.4879H56.4857H56.4835H56.4813H56.4792H56.477H56.4748H56.4727H56.4705H56.4684H56.4662H56.464H56.4619H56.4597H56.4576H56.4554H56.4533H56.4511H56.449H56.4468H56.4447H56.4425H56.4404H56.4383H56.4361H56.434H56.4318H56.4297H56.4276H56.4254H56.4233H56.4212H56.419H56.4169H56.4148H56.4126H56.4105H56.4084H56.4063H56.4041H56.402H56.3999H56.3978H56.3956H56.3935H56.3914H56.3893H56.3872H56.3851H56.3829H56.3808H56.3787H56.3766H56.3745H56.3724H56.3703H56.3682H56.3661H56.3639H56.3618H56.3597H56.3576H56.3555H56.3534H56.3513H56.3492H56.3471H56.345H56.3429H56.3408H56.3387H56.3366H56.3345H56.3324H56.3303H56.3282H56.3261H56.324H56.3219H56.3198H56.3178H56.3157H56.3136H56.3115H56.3094H56.3073H56.3052H56.3031H56.301H56.2989H56.2968H56.2948H56.2927H56.2906H56.2885H56.2864H56.2843H56.2822H56.2801H56.2781H56.276H56.2739H56.2718H56.2697H56.2676H56.2655H56.2635H56.2614H56.2593H56.2572H56.2551H56.253H56.2509H56.2489H56.2468H56.2447H56.2426H56.2405H56.2384H56.2364H56.2343H56.2322H56.2301H56.228H56.2259H56.2239H56.2218H56.2197H56.2176H56.2155H56.2134H56.2113H56.2093H56.2072H56.2051H56.203H56.2009H56.1988H56.1967H56.1947H56.1926H56.1905H56.1884H56.1863H56.1842H56.1821H56.18H56.1779H56.1759H56.1738H56.1717H56.1696H56.1675H56.1654H56.1633H56.1612H56.1591H56.157H56.1549H56.1528H56.1507H56.1487H56.1466H56.1445H56.1424H56.1403H56.1382H56.1361H56.134H56.1319H56.1298H56.1277H56.1256H56.1235H56.1214H56.1193H56.1171H56.115H56.1129H56.1108H56.1087H56.1066H56.1045H56.1024H56.1003H56.0982H56.0961H56.0939H56.0918H56.0897H56.0876H56.0855H56.0834H56.0812H56.0791H56.077H56.0749H56.0727H56.0706H56.0685H56.0664H56.0642H56.0621H56.06H56.0579H56.0557H56.0536H56.0515H56.0493H56.0472H56.045H56.0429H56.0408H56.0386H56.0365H56.0343H56.0322H56.0301H56.0279H56.0258H56.0236H56.0215H56.0193H56.0171H56.015H56.0128H56.0107H56.0085H56.0064H56.0042H56.002H55.9999H55.9977H55.9955H55.9934H55.9912H55.989H55.9869H55.9847H55.9825H55.9803H55.9781H55.976H55.9738H55.9716H55.9694H55.9672H55.965H55.9628H55.9606H55.9585H55.9563H55.9541H55.9519H55.9497H55.9475H55.9453H55.943H55.9408H55.9386H55.9364H55.9342H55.932H55.9298H55.9276H55.9253H55.9231H55.9209H55.9187H55.9164H55.9142H55.912H55.9097H55.9075H55.9053H55.903H55.9008H55.8985H55.8963H55.894H55.8918H55.8895H55.8873H55.885H55.8828H55.8805H55.8782H55.876H55.8737H55.8714H55.8692H55.8669H55.8646H55.8624H55.8601H55.8578H55.8555H55.8532H55.8509H55.8486H55.8463H55.844H55.8417H55.8394H55.8371H55.8348H55.8325H55.8302H55.8279H55.8256H55.8233H55.821H55.8186H55.8163H55.814H55.8117H55.8093H55.807H55.8046H55.8023H55.8H55.7976H55.7953H55.7929H55.7906H55.7882H55.7859H55.7835H55.7811H55.7788H55.7764H55.774H55.7717H55.7693H55.7669H55.7645H55.7621H55.7597H55.7574H55.755H55.7526H55.7502H55.7478H55.7454H55.7429H55.7405H55.7381H55.7357H55.7333H55.7309H55.7284H55.726H55.7236H55.7211H55.7187H55.7163H55.7138H55.7114H55.7089H55.7065H55.704H55.7016H55.6991H55.6966H55.6942H55.6917H55.6892H55.6868H55.6843H55.6818H55.6793H55.6768H55.6743H55.6718H55.6693V80.3999V81.3999Z" fill="#007172" stroke="black" stroke-width="2"/>
<path d="M142.018 147.962C142.028 147.809 142.036 147.649 142.036 147.495V91.6748V91.6741L142.018 147.962ZM142.018 147.962H142.036V148.962V168.577V169.577H141.999C142.018 169.816 142.03 170.055 142.035 170.295L142.036 170.307V170.319V186.451V186.451C142.033 189.742 140.875 192.918 138.785 195.278C136.692 197.641 133.825 198.997 130.806 199H130.805H14.693H13.693V198V170.319V170.318C13.6953 167.027 14.8533 163.851 16.9434 161.492C19.0369 159.128 21.9035 157.772 24.9229 157.769H24.9238H105.283V91.6748V91.6741H106.283L142.018 147.962ZM131.048 79.3999H116.271H131.048Z" fill="#007172" stroke="black" stroke-width="2"/>
<path d="M534.722 31.9671V31.9635V11.1632C534.722 8.49636 533.758 5.92214 532.017 4.01054C530.274 2.09583 527.888 1 525.377 1H412.309C409.799 1 407.413 2.09583 405.669 4.01054C403.929 5.92213 402.965 8.49635 402.965 11.1632V198V199H403.965H430.751H430.752C433.416 198.997 435.949 197.833 437.801 195.799C439.651 193.768 440.677 191.032 440.679 188.196V188.195L440.679 50.9313L440.679 50.9236C440.658 48.103 439.622 45.3892 437.773 43.3781C437.382 42.9519 436.96 42.5644 436.513 42.2183L525.294 42.2183L525.298 42.2183C527.826 42.2074 530.227 41.0991 531.983 39.1703C533.737 37.2446 534.712 34.6541 534.722 31.9671Z" fill="#007172" stroke="black" stroke-width="2"/>
<path d="M384.476 50.8592L384.476 50.8625V188.191V188.192C384.474 191.026 383.459 193.761 381.628 195.794C379.794 197.829 377.283 198.997 374.639 199H374.638H356.878H356.875C355.572 198.996 354.286 198.706 353.091 198.151C351.896 197.596 350.819 196.788 349.919 195.779C349.018 194.771 348.311 193.58 347.833 192.278C347.355 190.977 347.114 189.587 347.122 188.188C347.122 188.187 347.122 188.186 347.122 188.185L347.122 48.2547C347.002 47.0885 346.711 45.6856 346.052 44.5101C345.414 43.3719 344.447 42.4631 342.903 42.145H340.358C340.306 42.145 340.253 42.1443 340.201 42.1427V42.145H339.201H287.089C287.533 42.4925 287.953 42.8818 288.342 43.31C290.173 45.3224 291.197 48.0361 291.218 50.8549L291.218 50.8625L291.218 188.191V188.192C291.216 191.026 290.201 193.761 288.37 195.794C286.535 197.829 284.024 198.997 281.381 199H281.38H161.523H160.523V198V174.165L384.476 50.8592ZM384.476 50.8592C384.472 49.4624 384.217 48.0784 383.726 46.7866C383.235 45.4947 382.516 44.3173 381.605 43.3251C380.693 42.3328 379.608 41.5446 378.408 41.0122C377.211 40.4808 375.926 40.2161 374.63 40.2367H364.892C364.642 40.1248 364.371 40.0613 364.092 40.0536L364.078 40.0534C362.598 40.0329 361.522 39.6565 360.724 39.1214C359.921 38.5826 359.343 37.8441 358.928 37.0176C358.084 35.3366 357.961 33.3933 357.961 32.4359V11.1674C357.961 8.50255 357.008 5.92855 355.284 4.01571C353.558 2.09943 351.192 1 348.701 1H263.29C260.798 1 258.432 2.09943 256.706 4.01571C254.982 5.92855 254.029 8.50255 254.029 11.1674V161.522L384.476 50.8592Z" fill="#007172" stroke="black" stroke-width="2"/>
<path d="M191.256 41.2V42.2H192.256H216.532C219.463 42.2 222.241 40.8622 224.265 38.5382C226.286 36.2185 227.402 33.0986 227.402 29.8695V13.3305C227.402 10.1014 226.286 6.98146 224.265 4.6618C222.241 2.33776 219.463 1 216.532 1H202.125C199.195 1 196.417 2.33776 194.392 4.6618C192.372 6.98145 191.256 10.1014 191.256 13.3305V41.1086V41.2Z" fill="#007172" stroke="black" stroke-width="2"/>
<path d="M462.014 79.4031H461.014V80.4031V108.244C461.014 111.507 462.253 114.644 464.471 116.965C466.691 119.287 469.711 120.6 472.871 120.6H488.718C491.877 120.6 494.898 119.287 497.118 116.965C499.336 114.644 500.575 111.507 500.575 108.244V91.6712C500.586 90.0467 500.286 88.4354 499.69 86.9323C499.094 85.428 498.214 84.0614 497.1 82.9147C495.986 81.768 494.66 80.8644 493.2 80.2603C491.744 79.6577 490.186 79.3658 488.618 79.4031H462.014Z" fill="#007172" stroke="black" stroke-width="2"/>
<path d="M29.3174 81.3999H29.3191H29.3208H29.3225H29.3241H29.3258H29.3275H29.3292H29.3309H29.3326H29.3342H29.3359H29.3376H29.3393H29.341H29.3426H29.3443H29.346H29.3477H29.3494H29.351H29.3527H29.3544H29.3561H29.3578H29.3594H29.3611H29.3628H29.3645H29.3662H29.3678H29.3695H29.3712H29.3729H29.3746H29.3762H29.3779H29.3796H29.3813H29.383H29.3846H29.3863H29.388H29.3897H29.3914H29.393H29.3947H29.3964H29.3981H29.3998H29.4014H29.4031H29.4048H29.4065H29.4082H29.4098H29.4115H29.4132H29.4149H29.4166H29.4182H29.4199H29.4216H29.4233H29.425H29.4266H29.4283H29.43H29.4317H29.4334H29.435H29.4367H29.4384H29.4401H29.4418H29.4434H29.4451H29.4468H29.4485H29.4502H29.4518H29.4535H29.4552H29.4569H29.4586H29.4602H29.4619H29.4636H29.4653H29.467H29.4686H29.4703H29.472H29.4737H29.4754H29.477H29.4787H29.4804H29.4821H29.4838H29.4854H29.4871H29.4888H29.4905H29.4922H29.4938H29.4955H29.4972H29.4989H29.5006H29.5022H29.5039H29.5056H29.5073H29.5089H29.5106H29.5123H29.514H29.5157H29.5173H29.519H29.5207H29.5224H29.5241H29.5257H29.5274H29.5291H29.5308H29.5324H29.5341H29.5358H29.5375H29.5392H29.5408H29.5425H29.5442H29.5459H29.5476H29.5492H29.5509H29.5526H29.5543H29.5559H29.5576H29.5593H29.561H29.5627H29.5643H29.566H29.5677H29.5694H29.571H29.5727H29.5744H29.5761H29.5778H29.5794H29.5811H29.5828H29.5845H29.5861H29.5878H29.5895H29.5912H29.5929H29.5945H29.5962H29.5979H29.5996H29.6012H29.6029H29.6046H29.6063H29.6079H29.6096H29.6113H29.613H29.6146H29.6163H29.618H29.6197H29.6214H29.623H29.6247H29.6264H29.6281H29.6297H29.6314H29.6331H29.6348H29.6364H29.6381H29.6398H29.6415H29.6431H29.6448H29.6465H29.6482H29.6498H29.6515H29.6532H29.6549H29.6565H29.6582H29.6599H29.6616H29.6632H29.6649H29.6666H29.6683H29.6699H29.6716H29.6733H29.675H29.6766H29.6783H29.68H29.6817H29.6833H29.685H29.6867H29.6884H29.69H29.6917H29.6934H29.695H29.6967H29.6984H29.7001H29.7017H29.7034H29.7051H29.7068H29.7084H29.7101H29.7118H29.7135H29.7151H29.7168H29.7185H29.7201H29.7218H29.7235H29.7252H29.7268H29.7285H29.7302H29.7318H29.7335H29.7352H29.7369H29.7385H29.7402H29.7419H29.7435H29.7452H29.7469H29.7486H29.7502H29.7519H29.7536H29.7552H29.7569H29.7586H29.7603H29.7619H29.7636H29.7653H29.7669H29.7686H29.7703H29.7719H29.7736H29.7753H29.777H29.7786H29.7803H29.782H29.7836H29.7853H29.787H29.7886H29.7903H29.792H29.7936H29.7953H29.797H29.7987H29.8003H29.802H29.8037H29.8053H29.807H29.8087H29.8103H29.812H29.8137H29.8153H29.817H29.8187H29.8203H29.822H29.8237H29.8253H29.827H29.8287H29.8303H29.832H29.8337H29.8353H29.837H29.8387H29.8403H29.842H29.8437H29.8453H29.847H29.8487H29.8503H29.852H29.8537H29.8553H29.857H29.8587H29.8603H29.862H29.8637H29.8653H29.867H29.8686H29.8703H29.872H29.8736H29.8753H29.877H29.8786H29.8803H29.882H29.8836H29.8853H29.8869H29.8886H29.8903H29.8919H29.8936H29.8953H29.8969H29.8986H29.9003H29.9019H29.9036H29.9052H29.9069H29.9086H29.9102H29.9119H29.9135H29.9152H29.9169H29.9185H29.9202H29.9219H29.9235H29.9252H29.9268H29.9285H29.9302H29.9318H29.9335H29.9351H29.9368H29.9385H29.9401H29.9418H29.9434H29.9451H29.9467H29.9484H29.9501H29.9517H29.9534H29.955H29.9567H29.9584H29.96H29.9617H29.9633H29.965H29.9666H29.9683H29.97H29.9716H29.9733H29.9749H29.9766H29.9782H29.9799H29.9816H29.9832H29.9849H29.9865H29.9882H29.9898H29.9915H29.9932H29.9948H29.9965H29.9981H29.9998H30.0014H30.0031H30.0047H30.0064H30.008H30.0097H30.0114H30.013H30.0147H30.0163H30.018H30.0196H30.0213H30.0229H30.0246H30.0262H30.0279H30.0295H30.0312H30.0328H30.0345H30.0361H30.0378H30.0395H30.0411H30.0428H30.0444H30.0461H30.0477H30.0494H30.051H30.0527H30.0543H30.056H30.0576H30.0593H30.0609H30.0626H30.0642H30.0659H30.0675H30.0692H30.0708H30.0725H30.0741H30.0758H30.0774H30.0791H30.0807H30.0823H30.084H30.0856H30.0873H30.0889H30.0906H30.0922H30.0939H30.0955H30.0972H30.0988H30.1005H30.1021H30.1038H30.1054H30.107H30.1087H30.1103H30.112H30.1136H30.1153H30.1169H30.1186H30.1202H30.1219H30.1235H30.1251H30.1268H30.1284H30.1301H30.1317H30.1334H30.135H30.1366H30.1383H30.1399H30.1416H30.1432H30.1449H30.1465H30.1481H30.1498H30.1514H30.1531H30.1547H30.1563H30.158H30.1596H30.1613H30.1629H30.1645H30.1662H30.1678H30.1695H30.1711H30.2487H30.2496H30.2505H30.2514H30.2524H30.2533H30.2542H30.2551H30.256H30.257H30.2579H30.2588H30.2597H30.2607H30.2616H30.2625H30.2635H30.2644H30.2654H30.2663H30.2672H30.2682H30.2691H30.2701H30.271H30.272H30.2729H30.2739H30.2749H30.2758H30.2768H30.2777H30.2787H30.2797H30.2806H30.2816H30.2826H30.2836H30.2845H30.2855H30.2865H30.2875H30.2885H30.2894H30.2904H30.2914H30.2924H30.2934H30.2944H30.2954H30.2964H30.2974H30.2984H30.2994H30.3004H30.3014H30.3024H30.3034H30.3044H30.3054H30.3065H30.3075H30.3085H30.3095H30.3105H30.3116H30.3126H30.3136H30.3146H30.3157H30.3167H30.3177H30.3188H30.3198H30.3209H30.3219H30.3229H30.324H30.325H30.3261H30.3271H30.3282H30.3292H30.3303H30.3314H30.3324H30.3335H30.3345H30.3356H30.3367H30.3377H30.3388H30.3399H30.341H30.342H30.3431H30.3442H30.3453H30.3464H30.3474H30.3485H30.3496H30.3507H30.3518H30.3529H30.354H30.3551H30.3562H30.3573H30.3584H30.3595H30.3606H30.3617H30.3628H30.3639H30.365H30.3661H30.3673H30.3684H30.3695H30.3706H30.3717H30.3729H30.374H30.3751H30.3763H30.3774H30.3785H30.3797H30.3808H30.3819H30.3831H30.3842H30.3854H30.3865H30.3877H30.3888H30.39H30.3911H30.3923H30.3934H30.3946H30.3958H30.3969H30.3981H30.3992H30.4004H30.4016H30.4028H30.4039H30.4051H30.4063H30.4075H30.4086H30.4098H30.411H30.4122H30.4134H30.4146H30.4158H30.4169H30.4181H30.4193H30.4205H30.4217H30.4229H30.4241H30.4253H30.4266H30.4278H30.429H30.4302H30.4314H30.4326H30.4338H30.4351H30.4363H30.4375H30.4387H30.4399H30.4412H30.4424H30.4436H30.4449H30.4461H30.4473H30.4486H30.4498H30.4511H30.4523H30.4536H30.4548H30.4561H30.4573H30.4586H30.4598H30.4611H30.4623H30.4636H30.4649H30.4661H30.4674H30.4686H30.4699H30.4712H30.4725H30.4737H30.475H30.4763H30.4776H30.4789H30.4801H30.4814H30.4827H30.484H30.4853H30.4866H30.4879H30.4892H30.4905H30.4918H30.4931H30.4944H30.4957H30.497H30.4983H30.4996H30.5009H30.5022H30.5035H30.5049H30.5062H30.5075H30.5088H30.5101H30.5115H30.5128H30.5141H30.5155H30.5168H30.5181H30.5195H30.5208H30.5221H30.5235H30.5248H30.5262H30.5275H30.5289H30.5302H30.5316H30.5329H30.5343H30.5356H30.537H30.5384H30.5397H30.5411H30.5425H30.5438H30.5452H30.5466H30.5479H30.5493H30.5507H30.5521H30.5535H30.5548H30.5562H30.5576H30.559H30.5604H30.5618H30.5632H30.5646H30.566H30.5674H30.5688H30.5702H30.5716H30.573H30.5744H30.5758H30.5772H30.5786H30.58H30.5815H30.5829H30.5843H30.5857H30.5871H30.5886H30.59H30.5914H30.5928H30.5943H30.5957H30.5972H30.5986H30.6H30.6015H30.6029H30.6044H30.6058H30.6073H30.6087H30.6102H30.6116H30.6131H30.6145H30.616H30.6174H30.6189H30.6204H30.6218H30.6233H30.6248H30.6262H30.6277H30.6292H30.6307H30.6322H30.6336H30.6351H30.6366H30.6381H30.6396H30.6411H30.6426H30.644H30.6455H30.647H30.6485H30.65H30.6515H30.653H30.6545H30.6561H30.6576H30.6591H30.6606H30.6621H30.6636H30.6651H30.6667H30.6682H30.6697H30.6712H30.6727H30.6743H30.6758H30.6773H30.6789H30.6804H30.6819H30.6835H30.685H30.6866H30.6881H30.6897H30.6912H30.6928H30.6943H30.6959H30.6974H30.699H30.7005H30.7021H30.7037H30.7052H30.7068H30.7084H30.7099H30.7115H30.7131H30.7146H30.7162H30.7178H30.7194H30.721H30.7225H30.7241H30.7257H30.7273H30.7289H30.7305H30.7321H30.7337H30.7353H30.7369H30.7385H30.7401H30.7417H30.7433H30.7449H30.7465H30.7481H30.7497H30.7513H30.753H30.7546H30.7562H30.7578H30.7595H30.7611H30.7627H30.7643H30.766H30.7676H30.7692H30.7709H30.7725H30.7742H30.7758H30.7774H30.7791H30.7807H30.7824H30.784H30.7857H30.7873H30.789H30.7907H30.7923H30.794H30.7956H30.7973H30.799H30.8006H30.8023H30.804H30.8057H30.8073H30.809H30.8107H30.8124H30.8141H30.8157H30.8174H30.8191H30.8208H30.8225H30.8242H30.8259H30.8276H30.8293H30.831H30.8327H30.8344H30.8361H30.8378H30.8395H30.8412H30.8429H30.8447H30.8464H30.8481H30.8498H30.8515H30.8533H30.855H30.8567H30.8584H30.8602H30.8619H30.8636H30.8654H30.8671H30.8688H30.8706H30.8723H30.8741H30.8758H30.8776H30.8793H30.8811H30.8828H30.8846H30.8863H30.8881H30.8899H30.8916H30.8934H30.8952H30.8969H30.8987H30.9005H30.9022H30.904H30.9058H30.9076H30.9094H30.9111H30.9129H30.9147H30.9165H30.9183H30.9201H30.9219H30.9237H30.9255H30.9273H30.9291H30.9309H30.9327H30.9345H30.9363H30.9381H30.9399H30.9417H30.9435H30.9453H30.9472H30.9507H30.9541H30.9576H30.9611H30.9646H30.9681H30.9716H30.9751H30.9786H30.9821H30.9856H30.9891H30.9926H30.9961H30.9995H31.003H31.0065H31.01H31.0135H31.017H31.0205H31.024H31.0275H31.031H31.0345H31.038H31.0415H31.045H31.0484H31.0519H31.0554H31.0589H31.0624H31.0659H31.0694H31.0729H31.0764H31.0799H31.0834H31.0869H31.0904H31.0938H31.0973H31.1008H31.1043H31.1078H31.1113H31.1148H31.1183H31.1218H31.1253H31.1288H31.1323H31.1358H31.1393H31.1427H31.1462H31.1497H31.1532H31.1567H31.1602H31.1637H31.1672H31.1707H31.1742H31.1777H31.1812H31.1847H31.1881H31.1916H31.1951H31.1986H31.2021H31.2056H31.2091H31.2126H31.2161H31.2196H31.2231H31.2266H31.2301H31.2335H31.237H31.2405H31.244H31.2475H31.251H31.2545H31.258H31.2615H31.265H31.2685H31.272H31.2755H31.279H31.2824H31.2859H31.2894H31.2929H31.2964H31.2999H31.3034H31.3069H31.3104H31.3139H31.3174H31.3209H31.3243H31.3278H31.3313H31.3348H31.3383H31.3418H31.3453H31.3488H31.3523H31.3558H31.3593H31.3628H31.3663H31.3697H31.3732H31.3767H31.3802H31.3837H31.3872H31.3907H31.3942H31.3977H31.4012H31.4047H31.4082H31.4116H31.4151H31.4186H31.4221H31.4256H31.4291H31.4326H31.4361H31.4396H31.4431H31.4466H31.4501H31.4535H31.457H31.4605H31.464H31.4675H31.471H31.4745H31.478H31.4815H31.485H31.4885H31.492H31.4954H31.4989H31.5024H31.5059H31.5094H31.5129H31.5164H31.5199H31.5234H31.5269H31.5304H31.5338H31.5373H31.5408H31.5443H31.5478H31.5513H31.5548H31.5583H31.5618H31.5653H31.5688H31.5722H31.5757H31.5792H31.5827H31.5862H31.5897H31.5932H31.5967H31.6002H31.6037H31.6072H31.6106H31.6141H31.6176H31.6211H31.6246H31.6281H31.6316H31.6351H31.6386H31.6421H31.6455H31.649H31.6525H31.656H31.6595H31.663H31.6665H31.67H31.6735H31.677H31.6804H31.6839H31.6874H31.6909H31.6944H31.6979H31.7014H31.7049H31.7084H31.7119H31.7153H31.7188H31.7223H31.7258H31.7293H31.7328H31.7363H31.7398H31.7433H31.7467H31.7502H31.7537H31.7572H31.7607H31.7642H31.7677H31.7712H31.7747H31.7781H31.7816H31.7851H31.7886H31.7921H31.7956H31.7991H31.8026H31.8061H31.8095H31.813H31.8165H31.82H31.8235H31.827H31.8305H31.834H31.8375H31.8409H31.8444H31.8479H31.8514H31.8549H31.8584H31.8619H31.8654H31.8688H31.8723H31.8758H31.8793H31.8828H31.8863H31.8898H31.8933H31.8967H31.9002H31.9037H31.9072H31.9107H31.9142H31.9177H31.9212H31.9246H31.9281H31.9316H31.9351H31.9386H31.9421H31.9456H31.9491H31.9525H31.956H31.9595H31.963H31.9665H31.97H31.9735H31.9769H31.9804H31.9839H31.9874H31.9909H31.9944H31.9979H32.0014H32.0048H32.0083H32.0118H32.0153H32.0188H32.0223H32.0258H32.0292H32.0327H32.0362H32.0397H32.0432H32.0467H32.0502H32.0536H32.0571H32.0606H32.0641H32.0676H32.0711H32.0746H32.078H32.0815H32.085H32.0885H32.092H32.0955H32.0989H32.1024H32.1059H32.1094H32.1129H32.1164H32.1199H32.1233H32.1268H32.1303H32.1338H32.1373H32.1408H32.1442H32.1477H32.1512H32.1547H32.1582H32.1617H32.1651H32.1686H32.1721H32.1756H32.1791H32.1826H32.186H32.1895H32.193H32.1965H32.2H32.2035H32.2069H32.2104H32.2139H32.2174H32.2209H32.2244H32.2278H32.2313H32.2348H32.2383H32.2418H32.2453H32.2487H32.2522H32.2557H32.2592H32.2627H32.2661H32.2696H32.2731H32.2766H32.2801H32.2836H32.287H32.2905H32.294H32.2975H32.301H32.3044H32.3079H32.3114H32.3149H32.3184H32.3218H32.3253H32.3288H32.3323H32.3358H32.3393H32.3427H32.3462H32.3497H32.3532H32.3567H32.3601H32.3636H32.3671H32.3706H32.3741H32.3775H32.381H32.3845H32.388H32.3915H32.3949H32.3984H32.4019H32.4054H32.4089H32.4123H32.4158H32.4193H32.4228H32.4262H32.4297H32.4332H32.4367H32.4402H32.4436H32.4471H32.4506H32.4541H32.4576H32.461H32.4645H32.468H32.4715H32.4749H32.4784H32.4819H32.4854H32.4889H32.4923H32.4958H32.4993H32.5028H32.5062H32.5097H32.5132H32.5167H32.5201H32.5236H32.5271H32.5306H32.5341H32.5375H32.541H32.5445H32.548H32.5514H32.5549H32.5584H32.5619H32.5653H32.5688H32.5723H32.5758H32.5792H32.5827H32.5862H32.5897H32.5931H32.5966H32.6001H32.6036H32.607H32.6105H32.614H32.6175H32.6209H32.6244H32.6279H32.6314H32.6348H32.6383H32.6418H32.6453H32.6487H32.6522H32.6557H32.6592H32.6626H32.6661H32.6696H32.6731H32.6765H32.68H32.6835H32.6869H32.6904H32.6939H32.6974H32.7008H32.7043H32.7078H32.7113H32.7147H32.7182H32.7217H32.7251H32.7286H32.7321V80.3999V79.3999H32.7286H32.7251H32.7217H32.7182H32.7147H32.7113H32.7078H32.7043H32.7008H32.6974H32.6939H32.6904H32.6869H32.6835H32.68H32.6765H32.6731H32.6696H32.6661H32.6626H32.6592H32.6557H32.6522H32.6487H32.6453H32.6418H32.6383H32.6348H32.6314H32.6279H32.6244H32.6209H32.6175H32.614H32.6105H32.607H32.6036H32.6001H32.5966H32.5931H32.5897H32.5862H32.5827H32.5792H32.5758H32.5723H32.5688H32.5653H32.5619H32.5584H32.5549H32.5514H32.548H32.5445H32.541H32.5375H32.5341H32.5306H32.5271H32.5236H32.5201H32.5167H32.5132H32.5097H32.5062H32.5028H32.4993H32.4958H32.4923H32.4889H32.4854H32.4819H32.4784H32.4749H32.4715H32.468H32.4645H32.461H32.4576H32.4541H32.4506H32.4471H32.4436H32.4402H32.4367H32.4332H32.4297H32.4262H32.4228H32.4193H32.4158H32.4123H32.4089H32.4054H32.4019H32.3984H32.3949H32.3915H32.388H32.3845H32.381H32.3775H32.3741H32.3706H32.3671H32.3636H32.3601H32.3567H32.3532H32.3497H32.3462H32.3427H32.3393H32.3358H32.3323H32.3288H32.3253H32.3218H32.3184H32.3149H32.3114H32.3079H32.3044H32.301H32.2975H32.294H32.2905H32.287H32.2836H32.2801H32.2766H32.2731H32.2696H32.2661H32.2627H32.2592H32.2557H32.2522H32.2487H32.2453H32.2418H32.2383H32.2348H32.2313H32.2278H32.2244H32.2209H32.2174H32.2139H32.2104H32.2069H32.2035H32.2H32.1965H32.193H32.1895H32.186H32.1826H32.1791H32.1756H32.1721H32.1686H32.1651H32.1617H32.1582H32.1547H32.1512H32.1477H32.1442H32.1408H32.1373H32.1338H32.1303H32.1268H32.1233H32.1199H32.1164H32.1129H32.1094H32.1059H32.1024H32.0989H32.0955H32.092H32.0885H32.085H32.0815H32.078H32.0746H32.0711H32.0676H32.0641H32.0606H32.0571H32.0536H32.0502H32.0467H32.0432H32.0397H32.0362H32.0327H32.0292H32.0258H32.0223H32.0188H32.0153H32.0118H32.0083H32.0048H32.0014H31.9979H31.9944H31.9909H31.9874H31.9839H31.9804H31.9769H31.9735H31.97H31.9665H31.963H31.9595H31.956H31.9525H31.9491H31.9456H31.9421H31.9386H31.9351H31.9316H31.9281H31.9246H31.9212H31.9177H31.9142H31.9107H31.9072H31.9037H31.9002H31.8967H31.8933H31.8898H31.8863H31.8828H31.8793H31.8758H31.8723H31.8688H31.8654H31.8619H31.8584H31.8549H31.8514H31.8479H31.8444H31.8409H31.8375H31.834H31.8305H31.827H31.8235H31.82H31.8165H31.813H31.8095H31.8061H31.8026H31.7991H31.7956H31.7921H31.7886H31.7851H31.7816H31.7781H31.7747H31.7712H31.7677H31.7642H31.7607H31.7572H31.7537H31.7502H31.7467H31.7433H31.7398H31.7363H31.7328H31.7293H31.7258H31.7223H31.7188H31.7153H31.7119H31.7084H31.7049H31.7014H31.6979H31.6944H31.6909H31.6874H31.6839H31.6804H31.677H31.6735H31.67H31.6665H31.663H31.6595H31.656H31.6525H31.649H31.6455H31.6421H31.6386H31.6351H31.6316H31.6281H31.6246H31.6211H31.6176H31.6141H31.6106H31.6072H31.6037H31.6002H31.5967H31.5932H31.5897H31.5862H31.5827H31.5792H31.5757H31.5722H31.5688H31.5653H31.5618H31.5583H31.5548H31.5513H31.5478H31.5443H31.5408H31.5373H31.5338H31.5304H31.5269H31.5234H31.5199H31.5164H31.5129H31.5094H31.5059H31.5024H31.4989H31.4954H31.492H31.4885H31.485H31.4815H31.478H31.4745H31.471H31.4675H31.464H31.4605H31.457H31.4535H31.4501H31.4466H31.4431H31.4396H31.4361H31.4326H31.4291H31.4256H31.4221H31.4186H31.4151H31.4116H31.4082H31.4047H31.4012H31.3977H31.3942H31.3907H31.3872H31.3837H31.3802H31.3767H31.3732H31.3697H31.3663H31.3628H31.3593H31.3558H31.3523H31.3488H31.3453H31.3418H31.3383H31.3348H31.3313H31.3278H31.3243H31.3209H31.3174H31.3139H31.3104H31.3069H31.3034H31.2999H31.2964H31.2929H31.2894H31.2859H31.2824H31.279H31.2755H31.272H31.2685H31.265H31.2615H31.258H31.2545H31.251H31.2475H31.244H31.2405H31.237H31.2335H31.2301H31.2266H31.2231H31.2196H31.2161H31.2126H31.2091H31.2056H31.2021H31.1986H31.1951H31.1916H31.1881H31.1847H31.1812H31.1777H31.1742H31.1707H31.1672H31.1637H31.1602H31.1567H31.1532H31.1497H31.1462H31.1427H31.1393H31.1358H31.1323H31.1288H31.1253H31.1218H31.1183H31.1148H31.1113H31.1078H31.1043H31.1008H31.0973H31.0938H31.0904H31.0869H31.0834H31.0799H31.0764H31.0729H31.0694H31.0659H31.0624H31.0589H31.0554H31.0519H31.0484H31.045H31.0415H31.038H31.0345H31.031H31.0275H31.024H31.0205H31.017H31.0135H31.01H31.0065H31.003H30.9995H30.9961H30.9926H30.9891H30.9856H30.9821H30.9786H30.9751H30.9716H30.9681H30.9646H30.9611H30.9576H30.9541H30.9507H30.9472H30.9453H30.9435H30.9417H30.9399H30.9381H30.9363H30.9345H30.9327H30.9309H30.9291H30.9273H30.9255H30.9237H30.9219H30.9201H30.9183H30.9165H30.9147H30.9129H30.9111H30.9094H30.9076H30.9058H30.904H30.9022H30.9005H30.8987H30.8969H30.8952H30.8934H30.8916H30.8899H30.8881H30.8863H30.8846H30.8828H30.8811H30.8793H30.8776H30.8758H30.8741H30.8723H30.8706H30.8688H30.8671H30.8654H30.8636H30.8619H30.8602H30.8584H30.8567H30.855H30.8533H30.8515H30.8498H30.8481H30.8464H30.8447H30.8429H30.8412H30.8395H30.8378H30.8361H30.8344H30.8327H30.831H30.8293H30.8276H30.8259H30.8242H30.8225H30.8208H30.8191H30.8174H30.8157H30.8141H30.8124H30.8107H30.809H30.8073H30.8057H30.804H30.8023H30.8006H30.799H30.7973H30.7956H30.794H30.7923H30.7907H30.789H30.7873H30.7857H30.784H30.7824H30.7807H30.7791H30.7774H30.7758H30.7742H30.7725H30.7709H30.7692H30.7676H30.766H30.7643H30.7627H30.7611H30.7595H30.7578H30.7562H30.7546H30.753H30.7513H30.7497H30.7481H30.7465H30.7449H30.7433H30.7417H30.7401H30.7385H30.7369H30.7353H30.7337H30.7321H30.7305H30.7289H30.7273H30.7257H30.7241H30.7225H30.721H30.7194H30.7178H30.7162H30.7146H30.7131H30.7115H30.7099H30.7084H30.7068H30.7052H30.7037H30.7021H30.7005H30.699H30.6974H30.6959H30.6943H30.6928H30.6912H30.6897H30.6881H30.6866H30.685H30.6835H30.6819H30.6804H30.6789H30.6773H30.6758H30.6743H30.6727H30.6712H30.6697H30.6682H30.6667H30.6651H30.6636H30.6621H30.6606H30.6591H30.6576H30.6561H30.6545H30.653H30.6515H30.65H30.6485H30.647H30.6455H30.644H30.6426H30.6411H30.6396H30.6381H30.6366H30.6351H30.6336H30.6322H30.6307H30.6292H30.6277H30.6262H30.6248H30.6233H30.6218H30.6204H30.6189H30.6174H30.616H30.6145H30.6131H30.6116H30.6102H30.6087H30.6073H30.6058H30.6044H30.6029H30.6015H30.6H30.5986H30.5972H30.5957H30.5943H30.5928H30.5914H30.59H30.5886H30.5871H30.5857H30.5843H30.5829H30.5815H30.58H30.5786H30.5772H30.5758H30.5744H30.573H30.5716H30.5702H30.5688H30.5674H30.566H30.5646H30.5632H30.5618H30.5604H30.559H30.5576H30.5562H30.5548H30.5535H30.5521H30.5507H30.5493H30.5479H30.5466H30.5452H30.5438H30.5425H30.5411H30.5397H30.5384H30.537H30.5356H30.5343H30.5329H30.5316H30.5302H30.5289H30.5275H30.5262H30.5248H30.5235H30.5221H30.5208H30.5195H30.5181H30.5168H30.5155H30.5141H30.5128H30.5115H30.5101H30.5088H30.5075H30.5062H30.5049H30.5035H30.5022H30.5009H30.4996H30.4983H30.497H30.4957H30.4944H30.4931H30.4918H30.4905H30.4892H30.4879H30.4866H30.4853H30.484H30.4827H30.4814H30.4801H30.4789H30.4776H30.4763H30.475H30.4737H30.4725H30.4712H30.4699H30.4686H30.4674H30.4661H30.4649H30.4636H30.4623H30.4611H30.4598H30.4586H30.4573H30.4561H30.4548H30.4536H30.4523H30.4511H30.4498H30.4486H30.4473H30.4461H30.4449H30.4436H30.4424H30.4412H30.4399H30.4387H30.4375H30.4363H30.4351H30.4338H30.4326H30.4314H30.4302H30.429H30.4278H30.4266H30.4253H30.4241H30.4229H30.4217H30.4205H30.4193H30.4181H30.4169H30.4158H30.4146H30.4134H30.4122H30.411H30.4098H30.4086H30.4075H30.4063H30.4051H30.4039H30.4028H30.4016H30.4004H30.3992H30.3981H30.3969H30.3958H30.3946H30.3934H30.3923H30.3911H30.39H30.3888H30.3877H30.3865H30.3854H30.3842H30.3831H30.3819H30.3808H30.3797H30.3785H30.3774H30.3763H30.3751H30.374H30.3729H30.3717H30.3706H30.3695H30.3684H30.3673H30.3661H30.365H30.3639H30.3628H30.3617H30.3606H30.3595H30.3584H30.3573H30.3562H30.3551H30.354H30.3529H30.3518H30.3507H30.3496H30.3485H30.3474H30.3464H30.3453H30.3442H30.3431H30.342H30.341H30.3399H30.3388H30.3377H30.3367H30.3356H30.3345H30.3335H30.3324H30.3314H30.3303H30.3292H30.3282H30.3271H30.3261H30.325H30.324H30.3229H30.3219H30.3209H30.3198H30.3188H30.3177H30.3167H30.3157H30.3146H30.3136H30.3126H30.3116H30.3105H30.3095H30.3085H30.3075H30.3065H30.3054H30.3044H30.3034H30.3024H30.3014H30.3004H30.2994H30.2984H30.2974H30.2964H30.2954H30.2944H30.2934H30.2924H30.2914H30.2904H30.2894H30.2885H30.2875H30.2865H30.2855H30.2845H30.2836H30.2826H30.2816H30.2806H30.2797H30.2787H30.2777H30.2768H30.2758H30.2749H30.2739H30.2729H30.272H30.271H30.2701H30.2691H30.2682H30.2672H30.2663H30.2654H30.2644H30.2635H30.2625H30.2616H30.2607H30.2597H30.2588H30.2579H30.257H30.256H30.2551H30.2542H30.2533H30.2524H30.2514H30.2505H30.2496H30.2487H30.1711H30.1695H30.1678H30.1662H30.1645H30.1629H30.1613H30.1596H30.158H30.1563H30.1547H30.1531H30.1514H30.1498H30.1481H30.1465H30.1449H30.1432H30.1416H30.1399H30.1383H30.1366H30.135H30.1334H30.1317H30.1301H30.1284H30.1268H30.1251H30.1235H30.1219H30.1202H30.1186H30.1169H30.1153H30.1136H30.112H30.1103H30.1087H30.107H30.1054H30.1038H30.1021H30.1005H30.0988H30.0972H30.0955H30.0939H30.0922H30.0906H30.0889H30.0873H30.0856H30.084H30.0823H30.0807H30.0791H30.0774H30.0758H30.0741H30.0725H30.0708H30.0692H30.0675H30.0659H30.0642H30.0626H30.0609H30.0593H30.0576H30.056H30.0543H30.0527H30.051H30.0494H30.0477H30.0461H30.0444H30.0428H30.0411H30.0395H30.0378H30.0361H30.0345H30.0328H30.0312H30.0295H30.0279H30.0262H30.0246H30.0229H30.0213H30.0196H30.018H30.0163H30.0147H30.013H30.0114H30.0097H30.008H30.0064H30.0047H30.0031H30.0014H29.9998H29.9981H29.9965H29.9948H29.9932H29.9915H29.9898H29.9882H29.9865H29.9849H29.9832H29.9816H29.9799H29.9782H29.9766H29.9749H29.9733H29.9716H29.97H29.9683H29.9666H29.965H29.9633H29.9617H29.96H29.9584H29.9567H29.955H29.9534H29.9517H29.9501H29.9484H29.9467H29.9451H29.9434H29.9418H29.9401H29.9385H29.9368H29.9351H29.9335H29.9318H29.9302H29.9285H29.9268H29.9252H29.9235H29.9219H29.9202H29.9185H29.9169H29.9152H29.9135H29.9119H29.9102H29.9086H29.9069H29.9052H29.9036H29.9019H29.9003H29.8986H29.8969H29.8953H29.8936H29.8919H29.8903H29.8886H29.8869H29.8853H29.8836H29.882H29.8803H29.8786H29.877H29.8753H29.8736H29.872H29.8703H29.8686H29.867H29.8653H29.8637H29.862H29.8603H29.8587H29.857H29.8553H29.8537H29.852H29.8503H29.8487H29.847H29.8453H29.8437H29.842H29.8403H29.8387H29.837H29.8353H29.8337H29.832H29.8303H29.8287H29.827H29.8253H29.8237H29.822H29.8203H29.8187H29.817H29.8153H29.8137H29.812H29.8103H29.8087H29.807H29.8053H29.8037H29.802H29.8003H29.7987H29.797H29.7953H29.7936H29.792H29.7903H29.7886H29.787H29.7853H29.7836H29.782H29.7803H29.7786H29.777H29.7753H29.7736H29.7719H29.7703H29.7686H29.7669H29.7653H29.7636H29.7619H29.7603H29.7586H29.7569H29.7552H29.7536H29.7519H29.7502H29.7486H29.7469H29.7452H29.7435H29.7419H29.7402H29.7385H29.7369H29.7352H29.7335H29.7318H29.7302H29.7285H29.7268H29.7252H29.7235H29.7218H29.7201H29.7185H29.7168H29.7151H29.7135H29.7118H29.7101H29.7084H29.7068H29.7051H29.7034H29.7017H29.7001H29.6984H29.6967H29.695H29.6934H29.6917H29.69H29.6884H29.6867H29.685H29.6833H29.6817H29.68H29.6783H29.6766H29.675H29.6733H29.6716H29.6699H29.6683H29.6666H29.6649H29.6632H29.6616H29.6599H29.6582H29.6565H29.6549H29.6532H29.6515H29.6498H29.6482H29.6465H29.6448H29.6431H29.6415H29.6398H29.6381H29.6364H29.6348H29.6331H29.6314H29.6297H29.6281H29.6264H29.6247H29.623H29.6214H29.6197H29.618H29.6163H29.6146H29.613H29.6113H29.6096H29.6079H29.6063H29.6046H29.6029H29.6012H29.5996H29.5979H29.5962H29.5945H29.5929H29.5912H29.5895H29.5878H29.5861H29.5845H29.5828H29.5811H29.5794H29.5778H29.5761H29.5744H29.5727H29.571H29.5694H29.5677H29.566H29.5643H29.5627H29.561H29.5593H29.5576H29.5559H29.5543H29.5526H29.5509H29.5492H29.5476H29.5459H29.5442H29.5425H29.5408H29.5392H29.5375H29.5358H29.5341H29.5324H29.5308H29.5291H29.5274H29.5257H29.5241H29.5224H29.5207H29.519H29.5173H29.5157H29.514H29.5123H29.5106H29.5089H29.5073H29.5056H29.5039H29.5022H29.5006H29.4989H29.4972H29.4955H29.4938H29.4922H29.4905H29.4888H29.4871H29.4854H29.4838H29.4821H29.4804H29.4787H29.477H29.4754H29.4737H29.472H29.4703H29.4686H29.467H29.4653H29.4636H29.4619H29.4602H29.4586H29.4569H29.4552H29.4535H29.4518H29.4502H29.4485H29.4468H29.4451H29.4434H29.4418H29.4401H29.4384H29.4367H29.435H29.4334H29.4317H29.43H29.4283H29.4266H29.425H29.4233H29.4216H29.4199H29.4182H29.4166H29.4149H29.4132H29.4115H29.4098H29.4082H29.4065H29.4048H29.4031H29.4014H29.3998H29.3981H29.3964H29.3947H29.393H29.3914H29.3897H29.388H29.3863H29.3846H29.383H29.3813H29.3796H29.3779H29.3762H29.3746H29.3729H29.3712H29.3695H29.3678H29.3662H29.3645H29.3628H29.3611H29.3594H29.3578H29.3561H29.3544H29.3527H29.351H29.3494H29.3477H29.346H29.3443H29.3426H29.341H29.3393H29.3376H29.3359H29.3342H29.3326H29.3309H29.3292H29.3275H29.3258H29.3241H29.3225H29.3208H29.3191H29.3174V80.3999V81.3999Z" fill="#B15D5D" stroke="black" stroke-width="2"/>
<path d="M129.343 2V1H128.343H10.1147C7.65559 1 5.32569 2.10366 3.62837 4.01945C1.93452 5.93131 1.00019 8.50103 1.00019 11.1589V70.5972C0.992382 71.9937 1.22864 73.3804 1.69755 74.6788C2.16681 75.9782 2.86128 77.1674 3.74626 78.1757C4.63144 79.1843 5.69095 79.993 6.86773 80.5491C8.04499 81.1053 9.31319 81.3959 10.5984 81.4H10.6015H28.1054C28.4202 81.4137 28.7347 81.3896 29.0434 81.3286C29.0932 81.3367 29.138 81.3414 29.1758 81.3442C29.3129 81.3545 29.4389 81.3464 29.5237 81.339C29.5811 81.334 29.6527 81.326 29.7024 81.3204C29.7197 81.3184 29.7343 81.3168 29.7447 81.3157C29.7728 81.3127 29.7933 81.3108 29.8096 81.3096C29.8134 81.3093 29.8168 81.3091 29.8197 81.309C29.8227 81.3088 29.8252 81.3087 29.8273 81.3086C29.8314 81.3084 29.8332 81.3084 29.8328 81.3084H29.8476L29.8624 81.308C30.4503 81.2906 31.0386 81.3174 31.6235 81.3883C33.1688 81.6948 34.1312 82.5903 34.7623 83.7166C35.4073 84.8677 35.6927 86.246 35.8113 87.4107V108.243C35.8113 111.484 36.9508 114.613 39.0099 116.937C41.0724 119.265 43.8976 120.6 46.8732 120.6H61.5604C64.536 120.6 67.3612 119.265 69.4238 116.937C71.4829 114.613 72.6224 111.484 72.6224 108.243V91.6654C72.6224 88.4246 71.4829 85.2958 69.4238 82.9717C67.3612 80.6437 64.536 79.3084 61.5604 79.3084H46.892C46.5156 79.2946 46.0697 79.3025 45.8407 79.3065C45.7776 79.3076 45.731 79.3084 45.7068 79.3084H45.7063H45.7058H45.7053H45.7048H45.7043H45.7038H45.7033H45.7028H45.7023H45.7018H45.7013H45.7007H45.7002H45.6997H45.6991H45.6986H45.698H45.6975H45.6969H45.6963H45.6958H45.6952H45.6946H45.694H45.6934H45.6928H45.6922H45.6916H45.691H45.6904H45.6898H45.6892H45.6885H45.6879H45.6873H45.6867H45.686H45.6854H45.6847H45.6841H45.6834H45.6827H45.6821H45.6814H45.6807H45.6801H45.6794H45.6787H45.678H45.6773H45.6766H45.6759H45.6752H45.6745H45.6738H45.6731H45.6723H45.6716H45.6709H45.6702H45.6694H45.6687H45.6679H45.6672H45.6665H45.6657H45.6649H45.6642H45.6634H45.6626H45.6619H45.6611H45.6603H45.6595H45.6587H45.658H45.6572H45.6564H45.6556H45.6548H45.654H45.6532H45.6523H45.6515H45.6507H45.6499H45.6491H45.6482H45.6474H45.6466H45.6457H45.6449H45.644H45.6432H45.6423H45.6415H45.6406H45.6398H45.6389H45.638H45.6372H45.6363H45.6354H45.6345H45.6337H45.6328H45.6319H45.631H45.6301H45.6292H45.6283H45.6274H45.6265H45.6256H45.6247H45.6238H45.6229H45.6219H45.621H45.6201H45.6192H45.6183H45.6173H45.6164H45.6155H45.6145H45.6136H45.6126H45.6117H45.6107H45.6098H45.6088H45.6079H45.6069H45.606H45.605H45.604H45.6031H45.6021H45.6011H45.6002H45.5992H45.5982H45.5972H45.5963H45.5953H45.5943H45.5933H45.5923H45.5913H45.5903H45.5893H45.5883H45.5873H45.5863H45.5853H45.5843H45.5833H45.5823H45.5813H45.5803H45.5793H45.5783H45.5772H45.5762H45.5752H45.5742H45.5732H45.5721H45.5711H45.5701H45.569H45.568H45.567H45.5659H45.5649H45.5639H45.5628H45.5618H45.5607H45.5597H45.5586H45.5576H45.5565H45.5555H45.5544H45.5534H45.5523H45.5513H45.5502H45.5492H45.5481H45.547H45.546H45.5449H45.5438H45.5428H45.5417H45.5406H45.5396H45.5385H45.5374H45.5364H45.5353H45.5342H45.5331H45.5321H45.531H45.5299H45.5288H45.5277H45.5267H45.5256H45.5245H45.5234H45.5223H45.5212H45.5202H45.5191H45.518H45.5169H45.5158H45.5147H45.5136H45.5125H45.5115H45.5104H45.5093H45.5082H45.5071H45.506H45.5049H45.5038H45.5027H45.5016H45.5005H45.4994H45.4983H45.4972H45.4961H45.495H45.4939H45.4928H45.4917H45.4906H45.4895H45.4884H45.4873H45.4862H45.4851H45.4841H45.4829H45.4818H45.4808H45.4797H45.4785H45.4775H45.4764H45.4753H45.4742H45.4731H45.472H45.4709H45.4698H45.4687H45.4676H45.4665H45.4654H45.4643H45.4632H45.4621H45.461H45.4599H45.4588H45.4577H45.4566H45.4555H45.4544H45.4533H45.4522H45.4511H45.45H45.4489H45.4478H45.4467H45.4457H45.4446H45.4435H45.4424H45.4413H45.4402H45.4391H45.438H45.4369H45.4359H45.4348H45.4337H45.4326H45.4315H45.4304H45.4294H45.4283H45.4272H45.4261H45.425H45.424H45.4229H45.4218H45.4207H45.4197H45.4186H45.4175H45.4165H45.4154H45.4143H45.4133H45.4122H45.4111H45.4101H45.409H45.408H45.4069H45.4058H45.4048H45.4037H45.4027H45.4016H45.4006H45.3995H45.3985H45.3974H45.3964H45.3953H45.3943H45.3933H45.3922H45.3912H45.3901H45.3891H45.3881H45.387H45.386H45.385H45.384H45.3829H45.3819H45.3809H45.3799H45.3788H45.3778H45.3768H45.3758H45.3748H45.3738H45.3728H45.3718H45.3708H45.3698H45.3688H45.3678H45.3668H45.3658H45.3648H45.3638H45.3628H45.3618H45.3608H45.3599H45.3589H45.3579H45.3569H45.356H45.355H45.354H45.3531H45.3521H45.3511H45.3502H45.3492H45.3483H45.3473H45.3464H45.3454H45.3445H45.3435H45.3426H45.3416H45.3407H45.3398H45.3388H45.3379H45.337H45.3361H45.3352H45.3342H45.3333H45.3324H45.3315H45.3306H45.3297H45.3288H45.3279H45.327H45.3261H45.3252H45.3243H45.3234H45.3226H45.3217H45.3208H45.3199H45.3191H45.3182H45.3173H45.3165H45.3156H45.3148H45.3139H45.3131H45.3122H45.3114H45.3105H45.3097H45.3089H45.308H45.3072H45.3064H45.3056H45.3048H45.304H45.3031H45.3023H45.3015H45.3007H45.2999H45.2991H45.2984H45.2976H45.2968H45.296H45.2952H45.2945H45.2937H45.2929H45.2922H45.2914H45.2907H45.2899H45.2892H45.2884H45.2877H45.2869H45.2862H45.2855H45.2848H45.284H45.2833H45.2826H45.2819H45.2812H45.2805H45.2798H45.2791H45.2784H45.2777H45.277H45.2764H45.2757H45.275H45.2744H45.2737H45.273H45.2724H45.2717H45.2711H45.2705H45.2698H45.2692H45.2686H45.2679H45.2673H45.2667H45.2661H45.2655H45.2649H45.2643H45.2637H45.2631H45.2625H45.2619H45.2614H45.2608H45.2602H45.2597H45.2591H45.2585H45.258H45.2574H45.2569H45.2564H45.2558H45.2553H45.2548H45.2543H45.2538H45.2533H45.2528H45.2523H45.2518H45.2513H45.2508H45.2503H43.2217C41.9191 79.3084 40.9814 78.9504 40.2848 78.4307C39.5763 77.9021 39.0563 77.1602 38.679 76.3085C37.9137 74.5809 37.8113 72.5769 37.8113 71.6075V50.9084V50.9076C37.8089 48.105 36.8226 45.3972 35.0381 43.3831C34.6526 42.9479 34.2362 42.5525 33.7942 42.2L120.147 42.2L120.151 42.2C122.628 42.189 124.971 41.0729 126.681 39.1431C128.388 37.2171 129.333 34.6311 129.343 31.953V31.9495V2Z" fill="#B15D5D" stroke="black" stroke-width="2"/>
<path d="M129.325 147.962C129.335 147.809 129.343 147.649 129.343 147.495V91.6748V91.6741L129.325 147.962ZM129.325 147.962H129.343V148.962V168.577V169.577H129.306C129.325 169.816 129.337 170.055 129.342 170.295L129.343 170.307V170.319V186.451V186.451C129.34 189.742 128.182 192.918 126.092 195.278C123.999 197.641 121.132 198.997 118.113 199H118.112H2H1V198V170.319V170.318C1.00231 167.027 2.16029 163.851 4.25038 161.492C6.34393 159.128 9.21052 157.772 12.2299 157.769H12.2308H92.5902V91.6748V91.6741H93.5902L129.325 147.962ZM118.355 79.3999H103.578H118.355Z" fill="#B15D5D" stroke="black" stroke-width="2"/>
<path d="M522.028 31.9671V31.9635V11.1632C522.028 8.49636 521.064 5.92214 519.324 4.01054C517.58 2.09583 515.194 1 512.684 1H399.616C397.105 1 394.719 2.09583 392.976 4.01054C391.235 5.92213 390.271 8.49635 390.271 11.1632V198V199H391.271H418.057H418.058C420.722 198.997 423.255 197.833 425.107 195.799C426.957 193.768 427.983 191.032 427.986 188.196V188.195L427.986 50.9313L427.986 50.9236C427.964 48.103 426.928 45.3892 425.08 43.3781C424.688 42.9519 424.266 42.5644 423.819 42.2183L512.6 42.2183L512.605 42.2183C515.133 42.2074 517.533 41.0991 519.289 39.1703C521.043 37.2446 522.019 34.6541 522.028 31.9671Z" fill="#B15D5D" stroke="black" stroke-width="2"/>
<path d="M371.783 50.8592L371.783 50.8625V188.191V188.192C371.781 191.026 370.767 193.761 368.935 195.794C367.101 197.829 364.59 198.997 361.946 199H361.945H344.185H344.182C342.879 198.996 341.593 198.706 340.398 198.151C339.204 197.596 338.127 196.788 337.226 195.779C336.326 194.771 335.618 193.58 335.14 192.278C334.662 190.977 334.422 189.587 334.43 188.188C334.43 188.187 334.43 188.186 334.43 188.185L334.43 48.2547C334.309 47.0885 334.018 45.6856 333.359 44.5101C332.722 43.3719 331.754 42.4631 330.211 42.145H327.665C327.613 42.145 327.561 42.1443 327.508 42.1427V42.145H326.508H274.396C274.84 42.4925 275.26 42.8818 275.65 43.31C277.48 45.3224 278.504 48.0361 278.525 50.8549L278.525 50.8625L278.525 188.191V188.192C278.523 191.026 277.508 193.761 275.677 195.794C273.843 197.829 271.332 198.997 268.688 199H268.687H148.83H147.83V198V174.165L371.783 50.8592ZM371.783 50.8592C371.779 49.4624 371.525 48.0784 371.033 46.7866C370.542 45.4947 369.823 44.3173 368.912 43.3251C368 42.3328 366.915 41.5446 365.715 41.0122C364.518 40.4808 363.233 40.2161 361.937 40.2367H352.199C351.949 40.1248 351.678 40.0613 351.399 40.0536L351.386 40.0534C349.905 40.0329 348.829 39.6565 348.031 39.1214C347.228 38.5826 346.651 37.8441 346.235 37.0176C345.391 35.3366 345.268 33.3933 345.268 32.4359V11.1674C345.268 8.50255 344.315 5.92855 342.592 4.01571C340.865 2.09943 338.499 1 336.008 1H250.597C248.105 1 245.74 2.09943 244.013 4.01571C242.289 5.92855 241.336 8.50255 241.336 11.1674V161.522L371.783 50.8592Z" fill="#B15D5D" stroke="black" stroke-width="2"/>
<path d="M178.563 41.2V42.2H179.563H203.839C206.77 42.2 209.548 40.8622 211.573 38.5382C213.593 36.2185 214.709 33.0986 214.709 29.8695V13.3305C214.709 10.1014 213.593 6.98146 211.573 4.6618C209.548 2.33776 206.77 1 203.839 1H189.433C186.502 1 183.724 2.33776 181.7 4.6618C179.679 6.98145 178.563 10.1014 178.563 13.3305V41.1086V41.2Z" fill="#B15D5D" stroke="black" stroke-width="2"/>
<path d="M449.321 79.4031H448.321V80.4031V108.244C448.321 111.507 449.56 114.644 451.778 116.965C453.998 119.287 457.018 120.6 460.178 120.6H476.025C479.184 120.6 482.205 119.287 484.425 116.965C486.643 114.644 487.882 111.507 487.882 108.244V91.6712C487.893 90.0467 487.593 88.4354 486.997 86.9323C486.401 85.428 485.521 84.0614 484.407 82.9147C483.293 81.768 481.967 80.8644 480.507 80.2603C479.051 79.6577 477.493 79.3658 475.925 79.4031H449.321Z" fill="#B15D5D" stroke="black" stroke-width="2"/>
</svg>
