<svg xmlns="http://www.w3.org/2000/svg" width="136" height="136" viewBox="0 0 136 136" fill="none">
  <path d="M29.1546 65.5629H54.9002C59.8111 65.5629 64.5406 67.6196 68.0426 71.3131C71.5476 75.0098 73.5316 80.0422 73.5316 85.3075V112.452C73.5316 115.858 74.8138 119.142 77.1226 121.578C79.4343 124.016 82.59 125.404 85.901 125.404H121.353C124.664 125.404 127.819 124.016 130.131 121.578C132.44 119.142 133.722 115.858 133.722 112.452V75.0707C133.722 71.6644 132.44 68.3804 130.131 65.9453C127.819 63.5071 124.664 62.119 121.353 62.119H95.607C90.6961 62.119 85.9665 60.0623 82.4645 56.3688C78.9595 52.6721 76.9755 47.6397 76.9755 42.3744V15.2298C76.9755 11.8235 75.6934 8.53945 73.3846 6.10436C71.0728 3.66615 67.9172 2.27806 64.6061 2.27806H29.1546C25.8435 2.27806 22.6879 3.66615 20.3761 6.10436C18.0673 8.53945 16.7852 11.8235 16.7852 15.2298V52.6112C16.7852 56.0175 18.0673 59.3015 20.3761 61.7366C22.6879 64.1748 25.8435 65.5629 29.1546 65.5629Z" fill="#025259" stroke="#F8F5E7" stroke-width="3.44388"/>
  <path d="M14.6474 73.8813H40.393C45.3039 73.8813 50.0335 75.9379 53.5355 79.6315C57.0405 83.3281 59.0245 88.3606 59.0245 93.6259V120.77C59.0245 124.177 60.3066 127.461 62.6154 129.896C64.9272 132.334 68.0828 133.722 71.3939 133.722H106.845C110.156 133.722 113.312 132.334 115.624 129.896C117.933 127.461 119.215 124.177 119.215 120.77V83.3891C119.215 79.9828 117.933 76.6988 115.624 74.2637C113.312 71.8255 110.156 70.4374 106.845 70.4374H81.0998C76.1889 70.4374 71.4594 68.3807 67.9574 64.6871C64.4524 60.9905 62.4684 55.9581 62.4684 50.6928V23.5481C62.4684 20.1418 61.1863 16.8578 58.8774 14.4227C56.5657 11.9845 53.41 10.5964 50.099 10.5964H14.6474C11.3364 10.5964 8.18078 11.9845 5.869 14.4227C3.56018 16.8578 2.27806 20.1418 2.27806 23.5481V60.9295C2.27806 64.3358 3.56018 67.6199 5.869 70.055C8.18077 72.4932 11.3364 73.8813 14.6474 73.8813Z" fill="#D94F04" stroke="#F8F5E7" stroke-width="3.44388"/>
</svg>