<svg xmlns="http://www.w3.org/2000/svg" width="199" height="199" viewBox="0 0 199 199" fill="none">
  <path d="M41.5353 95.0157H79.9525C87.5202 95.0157 94.7978 98.1856 100.178 103.861C105.562 109.539 108.602 117.258 108.602 125.326V165.831C108.602 170.703 110.436 175.393 113.727 178.864C117.022 182.339 121.511 184.309 126.211 184.309H179.112C183.813 184.309 188.301 182.339 191.596 178.864C194.887 175.393 196.722 170.703 196.722 165.831V110.051C196.722 105.178 194.887 100.489 191.596 97.017C188.301 93.5422 183.813 91.5718 179.112 91.5718H140.695C133.127 91.5718 125.849 88.402 120.469 82.727C115.085 77.049 112.045 69.3292 112.045 61.2617V20.7569C112.045 15.8847 110.211 11.1948 106.92 7.72321C103.625 4.24847 99.1365 2.27806 94.4356 2.27806H41.5353C36.8344 2.27806 32.3458 4.24847 29.0513 7.72321C25.7596 11.1948 23.9254 15.8847 23.9254 20.7569V76.5369C23.9254 81.4091 25.7596 86.0989 29.0513 89.5706C32.3458 93.0453 36.8344 95.0157 41.5353 95.0157Z" fill="#025259" stroke="#F8F5E7" stroke-width="3.44388"/>
  <path d="M19.888 107.428H58.3051C65.8729 107.428 73.1505 110.598 78.5311 116.273C83.9148 121.951 86.9542 129.671 86.9542 137.738V178.243C86.9542 183.115 88.7885 187.805 92.0801 191.277C95.3746 194.751 99.8632 196.722 104.564 196.722H157.464C162.165 196.722 166.654 194.751 169.948 191.277C173.24 187.805 175.074 183.115 175.074 178.243V122.463C175.074 117.591 173.24 112.901 169.948 109.429C166.654 105.955 162.165 103.984 157.464 103.984H119.047C111.479 103.984 104.202 100.814 98.8212 95.1394C93.4376 89.4613 90.3981 81.7415 90.3981 73.6741V33.1692C90.3981 28.2971 88.5639 23.6072 85.2723 20.1356C81.9777 16.6608 77.4891 14.6904 72.7882 14.6904H19.888C15.187 14.6904 10.6985 16.6608 7.40391 20.1356C4.11231 23.6072 2.27806 28.2971 2.27806 33.1692V88.9492C2.27806 93.8214 4.11231 98.5113 7.40391 101.983C10.6985 105.458 15.187 107.428 19.888 107.428Z" fill="#B15D5D" stroke="#F8F5E7" stroke-width="3.44388"/>
</svg>