<svg width="632" height="631" viewBox="0 0 632 631" fill="none" xmlns="http://www.w3.org/2000/svg">
<path d="M56.4772 330H193.04C221.672 330 249.133 341.376 269.379 361.626C289.626 381.875 301 409.34 301 437.977V574.514C301 589.495 306.95 603.863 317.542 614.456C328.133 625.049 342.499 631 357.477 631H545.523C560.501 631 574.867 625.049 585.458 614.456C596.05 603.863 602 589.495 602 574.514V386.486C602 371.505 596.05 357.137 585.458 346.544C574.867 335.951 560.501 330 545.523 330H408.961C380.328 330 352.867 318.624 332.621 298.374C312.374 278.125 301 250.66 301 222.023V85.4857C301 70.5048 295.05 56.1374 284.458 45.5443C273.867 34.9512 259.501 29 244.523 29H56.4772C41.4985 29 27.1333 34.9512 16.5418 45.5443C5.95026 56.1374 0 70.5048 0 85.4857L0 273.514C0 288.495 5.95026 302.863 16.5418 313.456C27.1333 324.049 41.4985 330 56.4772 330Z" fill="#F9F9F9"/>
<path d="M273.807 0.71582C275.753 0.71582 277.689 0.816592 279.607 1.01465C279.623 1.01621 279.639 1.0179 279.654 1.01953C279.684 1.02267 279.715 1.02611 279.745 1.0293C280.096 1.06642 280.447 1.10577 280.797 1.14941C280.815 1.15173 280.834 1.15392 280.853 1.15625C281.183 1.19783 281.513 1.24364 281.843 1.29102C281.907 1.30028 281.972 1.30887 282.036 1.31836C282.37 1.3676 282.704 1.42041 283.037 1.47559C283.094 1.48509 283.152 1.49521 283.209 1.50488C283.544 1.56143 283.878 1.61912 284.212 1.68164C284.264 1.69149 284.317 1.7029 284.369 1.71289C284.675 1.77109 284.98 1.83231 285.284 1.89551C285.335 1.90598 285.385 1.91615 285.436 1.92676C285.789 2.00113 286.142 2.07811 286.493 2.15918C286.51 2.16317 286.528 2.16787 286.545 2.17188C287.237 2.33215 287.926 2.50538 288.61 2.69141C288.687 2.71219 288.763 2.7328 288.84 2.75391C289.146 2.83856 289.452 2.92585 289.757 3.01562C289.831 3.03739 289.905 3.05899 289.979 3.08105C290.293 3.17503 290.606 3.27169 290.919 3.37109C290.973 3.38831 291.027 3.40644 291.081 3.42383C291.371 3.51706 291.661 3.61207 291.949 3.70996C292.009 3.73027 292.069 3.75 292.129 3.77051C292.446 3.87943 292.763 3.99191 293.078 4.10645C293.128 4.12465 293.178 4.14279 293.229 4.16113C293.558 4.28196 293.887 4.40528 294.215 4.53223C294.235 4.5402 294.256 4.54864 294.276 4.55664C294.598 4.68157 294.917 4.80965 295.236 4.94043C295.27 4.95406 295.303 4.96776 295.336 4.98145C295.636 5.10502 295.934 5.23163 296.231 5.36035C296.327 5.4018 296.423 5.44337 296.519 5.48535C296.811 5.61404 297.104 5.74427 297.395 5.87793C297.402 5.88151 297.41 5.88509 297.418 5.88867C297.427 5.89306 297.437 5.89794 297.446 5.90234C303.45 8.66964 308.978 12.4949 313.742 17.2598C318.493 22.0112 322.309 27.5229 325.074 33.5078C325.087 33.5348 325.101 33.5617 325.113 33.5889C325.125 33.6138 325.135 33.6392 325.146 33.6641C325.276 33.9474 325.403 34.2321 325.528 34.5176C325.562 34.5934 325.595 34.6691 325.628 34.7451C325.759 35.0482 325.889 35.3519 326.015 35.6572C326.036 35.7082 326.056 35.7595 326.077 35.8105C326.184 36.0718 326.289 36.3339 326.392 36.5967C326.419 36.6661 326.447 36.7352 326.474 36.8047C326.597 37.1244 326.717 37.4457 326.835 37.7676C326.858 37.8303 326.881 37.8932 326.903 37.9561C326.989 38.1931 327.074 38.4307 327.156 38.6689C327.209 38.8217 327.262 38.9747 327.313 39.1279C327.519 39.737 327.715 40.3497 327.899 40.9658C327.929 41.0657 327.96 41.1655 327.989 41.2656C328.18 41.9136 328.358 42.5656 328.525 43.2207C328.542 43.2852 328.559 43.3495 328.575 43.4141C328.654 43.7274 328.729 44.0416 328.803 44.3564C328.821 44.4353 328.84 44.5139 328.858 44.5928C328.929 44.8994 328.996 45.2067 329.062 45.5146C329.082 45.6134 329.102 45.7126 329.122 45.8115C329.252 46.445 329.373 47.081 329.481 47.7197C329.499 47.8229 329.516 47.926 329.533 48.0293C329.582 48.3247 329.629 48.6205 329.673 48.917C329.685 48.996 329.696 49.0752 329.707 49.1543C329.803 49.8225 329.888 50.4932 329.96 51.166C329.967 51.2285 329.975 51.291 329.981 51.3535C329.984 51.3821 329.986 51.4109 329.988 51.4395C330.184 53.3453 330.284 55.2681 330.284 57.2012V193.739C330.284 215.564 336.892 236.707 348.997 254.495C349.049 254.571 349.1 254.647 349.151 254.723C349.161 254.737 349.171 254.753 349.181 254.768C352.915 260.219 357.168 265.351 361.905 270.09C366.641 274.827 371.772 279.078 377.221 282.812C377.238 282.824 377.256 282.836 377.273 282.848C377.351 282.901 377.429 282.953 377.507 283.006C378.341 283.573 379.182 284.129 380.03 284.672C380.292 284.84 380.555 285.006 380.818 285.172C383.563 286.896 386.38 288.493 389.261 289.96C389.509 290.086 389.757 290.212 390.006 290.336C391.827 291.246 393.673 292.104 395.542 292.909C395.655 292.958 395.768 293.006 395.881 293.055C409.148 298.715 423.542 301.716 438.245 301.716H574.807C576.751 301.716 578.686 301.817 580.603 302.015C580.62 302.016 580.638 302.018 580.655 302.02C580.69 302.023 580.724 302.028 580.759 302.031C581.103 302.068 581.447 302.106 581.79 302.148C581.819 302.152 581.848 302.156 581.877 302.16C582.202 302.201 582.527 302.245 582.851 302.292C582.909 302.3 582.968 302.309 583.027 302.317C583.365 302.367 583.701 302.42 584.037 302.476C584.094 302.485 584.152 302.495 584.209 302.505C584.904 302.622 585.596 302.753 586.284 302.896C586.335 302.906 586.386 302.916 586.437 302.927C586.784 303 587.13 303.076 587.476 303.155C587.507 303.162 587.538 303.17 587.569 303.177C588.244 303.333 588.916 303.503 589.584 303.685C589.675 303.709 589.766 303.733 589.856 303.758C590.156 303.841 590.455 303.927 590.754 304.015C590.829 304.037 590.904 304.059 590.979 304.081C591.293 304.175 591.606 304.272 591.919 304.371C591.97 304.387 592.021 304.404 592.072 304.421C592.391 304.523 592.709 304.627 593.025 304.735C593.047 304.743 593.068 304.75 593.089 304.757C593.421 304.87 593.751 304.988 594.081 305.107C594.13 305.125 594.179 305.143 594.229 305.161C594.558 305.282 594.887 305.405 595.215 305.532C595.236 305.54 595.257 305.549 595.278 305.558C595.584 305.676 595.888 305.798 596.191 305.922C596.248 305.945 596.305 305.968 596.361 305.991C596.645 306.108 596.927 306.228 597.209 306.35C597.314 306.395 597.419 306.441 597.523 306.487C597.815 306.615 598.105 306.745 598.394 306.878C598.402 306.882 598.41 306.885 598.418 306.889C598.427 306.893 598.437 306.898 598.446 306.902C604.45 309.67 609.978 313.495 614.742 318.26C619.493 323.011 623.309 328.523 626.074 334.508C626.087 334.535 626.101 334.562 626.113 334.589C626.125 334.614 626.135 334.639 626.146 334.664C626.276 334.947 626.403 335.232 626.528 335.518C626.562 335.593 626.595 335.669 626.628 335.745C626.759 336.048 626.889 336.352 627.015 336.657C627.036 336.708 627.056 336.759 627.077 336.811C627.184 337.072 627.289 337.334 627.392 337.597C627.419 337.666 627.447 337.735 627.474 337.805C627.593 338.112 627.708 338.42 627.821 338.729C627.842 338.785 627.863 338.841 627.883 338.896C627.993 339.199 628.1 339.502 628.205 339.807C628.242 339.914 628.277 340.021 628.313 340.128C628.518 340.734 628.713 341.344 628.897 341.958C628.928 342.06 628.959 342.163 628.989 342.266C629.173 342.891 629.346 343.519 629.508 344.15C629.528 344.231 629.55 344.311 629.57 344.392C629.651 344.712 629.727 345.034 629.803 345.356C629.819 345.426 629.837 345.496 629.853 345.565C629.925 345.883 629.995 346.202 630.062 346.521C630.078 346.593 630.093 346.665 630.107 346.736C630.242 347.385 630.365 348.036 630.477 348.69C630.496 348.803 630.515 348.916 630.533 349.029C630.582 349.325 630.629 349.621 630.673 349.917C630.685 349.996 630.696 350.075 630.707 350.154C630.801 350.805 630.883 351.459 630.954 352.114C630.963 352.194 630.973 352.274 630.981 352.354C630.984 352.382 630.986 352.411 630.988 352.439C631.184 354.345 631.284 356.268 631.284 358.201V546.23C631.284 557.767 627.754 568.939 621.294 578.305C621.288 578.313 621.283 578.323 621.277 578.331C621.263 578.351 621.248 578.371 621.234 578.391C620.538 579.396 619.809 580.379 619.046 581.341C619.025 581.367 619.004 581.394 618.983 581.42C618.467 582.068 617.937 582.706 617.391 583.333C617.377 583.349 617.362 583.365 617.348 583.381C616.802 584.006 616.242 584.62 615.667 585.223C615.64 585.251 615.613 585.279 615.586 585.308C615.308 585.598 615.027 585.887 614.742 586.172C614.728 586.186 614.714 586.199 614.7 586.213L586.458 614.455L585.539 615.354C583.373 617.423 581.059 619.305 578.623 620.988C568.257 628.15 561.756 615.766 570.665 606.857C573.317 604.205 576.925 602.8 580.655 602.412C580.685 602.409 580.714 602.404 580.743 602.401C578.78 602.609 576.799 602.716 574.807 602.716H540.665C553.264 602.716 559.574 617.949 550.665 626.858C548.013 629.51 544.416 631 540.665 631H392.619C380.02 631 373.711 615.767 382.619 606.858C385.271 604.206 388.869 602.716 392.619 602.716H386.762C371.783 602.716 357.418 596.765 346.826 586.172C336.235 575.579 330.284 561.211 330.284 546.23V540.372C330.284 544.123 328.795 547.72 326.143 550.372C317.234 559.281 302 552.971 302 540.372V443.835C302 440.084 303.49 436.487 306.143 433.835C315.052 424.926 330.284 431.236 330.284 443.835V409.692C330.284 407.784 330.231 405.881 330.131 403.985C330.286 407.677 328.76 411.218 326.143 413.835C317.234 422.744 300.565 416.375 296.647 404.4C293.472 394.693 288.927 385.461 283.134 376.994C276.896 367.879 276.71 355.295 284.521 347.485C292.331 339.674 305.181 339.596 311.419 348.712C311.485 348.809 311.55 348.906 311.616 349.003C307.827 343.426 303.498 338.178 298.663 333.342C293.912 328.59 288.765 324.327 283.298 320.585L283.718 320.882C292.408 327.223 292.211 339.794 284.522 347.482C276.712 355.293 264.126 355.106 255.011 348.867C246.547 343.075 237.319 338.53 227.616 335.354C215.642 331.435 209.273 314.768 218.182 305.858C220.806 303.234 224.359 301.704 228.062 301.869C226.155 301.768 224.242 301.716 222.323 301.716H188.182C200.781 301.716 207.091 316.949 198.182 325.858C195.53 328.51 191.932 330 188.182 330H91.6191C79.0202 330 72.7107 314.767 81.6191 305.858C84.1885 303.289 87.645 301.81 91.2686 301.72L91.6191 301.716H85.7617C70.7831 301.716 56.4177 295.765 45.8262 285.172C35.2347 274.579 29.2843 260.211 29.2842 245.23V239.372C29.2841 243.123 27.7946 246.72 25.1426 249.372C16.2336 258.281 1.00025 251.971 1 239.372V91.3438C1 87.593 2.49041 83.9959 5.14258 81.3438C14.0516 72.4347 29.2842 78.7445 29.2842 91.3438V57.2012C29.2842 55.3285 29.3771 53.4655 29.5605 51.6182L29.5879 51.3535C29.1998 55.0841 27.7947 58.6916 25.1426 61.3438C16.2336 70.2527 3.84761 63.751 11.0068 53.3838C12.9308 50.5978 15.1147 47.9716 17.542 45.5439L45.8262 17.2598L46.3252 16.7666C46.4464 16.6484 46.5683 16.5311 46.6904 16.4141C46.7174 16.3883 46.7435 16.3617 46.7705 16.3359C47.0554 16.0641 47.3439 15.7966 47.6338 15.5312C47.664 15.5036 47.6943 15.4759 47.7246 15.4482C47.9978 15.1993 48.2732 14.9531 48.5508 14.71C48.6061 14.6615 48.6613 14.6127 48.7168 14.5645C49.0048 14.3141 49.2954 14.0673 49.5879 13.8232C49.6173 13.7987 49.6463 13.7735 49.6758 13.749C49.9665 13.5075 50.2596 13.2695 50.5547 13.0342C50.5963 13.001 50.6379 12.9677 50.6797 12.9346C51.2789 12.4595 51.8875 11.998 52.5039 11.5488C52.5626 11.506 52.6208 11.4625 52.6797 11.4199C52.9768 11.2052 53.2762 10.9939 53.5771 10.7852C53.6052 10.7657 53.6331 10.7459 53.6611 10.7266C53.6748 10.7171 53.6885 10.7076 53.7021 10.6982C63.064 4.24237 74.2312 0.71582 85.7617 0.71582H273.807ZM337.639 595.358C342.713 590.285 350.925 590.474 357.025 594.252C366.865 600.347 372.767 616.709 364.583 624.894L362.619 626.857C359.967 629.509 356.36 631.084 352.63 630.696C346.452 630.053 340.453 628.398 334.866 625.826C324.833 621.208 324.873 608.125 332.683 600.314L337.639 595.358ZM308.103 568.411C316.288 560.226 332.653 566.13 338.747 575.972C342.525 582.072 342.713 590.284 337.639 595.358L332.685 600.312C324.874 608.122 311.788 608.161 307.171 598.126C304.6 592.539 302.947 586.54 302.304 580.361C301.916 576.631 303.49 573.024 306.143 570.372L308.103 568.411ZM584.195 601.929C584.223 601.924 584.25 601.92 584.277 601.915C584.25 601.92 584.223 601.924 584.195 601.929ZM585.41 601.71C585.422 601.708 585.435 601.706 585.447 601.703C585.435 601.706 585.422 601.708 585.41 601.71ZM590.088 600.607C590.097 600.605 590.105 600.602 590.114 600.6C590.105 600.602 590.097 600.605 590.088 600.607ZM593.497 599.532C593.523 599.523 593.548 599.513 593.574 599.504C593.548 599.513 593.523 599.523 593.497 599.532ZM596.792 598.259C596.834 598.241 596.875 598.224 596.917 598.206C596.875 598.224 596.834 598.241 596.792 598.259ZM597.932 597.762C597.954 597.752 597.977 597.742 598 597.731C597.977 597.742 597.954 597.752 597.932 597.762ZM36.6387 294.359C41.7125 289.286 49.9252 289.475 56.0254 293.253C65.8649 299.348 71.7672 315.71 63.583 323.895L61.6191 325.858C58.9671 328.51 55.3602 330.085 51.6299 329.697C45.4517 329.054 39.453 327.398 33.8662 324.827C23.8331 320.209 23.8729 307.125 31.6826 299.315L36.6387 294.359ZM275.307 315.613C275.406 315.669 275.506 315.726 275.605 315.782C275.506 315.726 275.406 315.669 275.307 315.613ZM7.10254 267.411C15.288 259.226 31.6527 265.13 37.7471 274.972C41.5248 281.072 41.7127 289.284 36.6387 294.358L31.6846 299.312C23.8736 307.123 10.7878 307.161 6.1709 297.126C3.60044 291.539 1.94651 285.54 1.30371 279.361C0.915631 275.631 2.49044 272.024 5.14258 269.372L7.10254 267.411ZM30.0986 47.6465C30.0838 47.7327 30.0691 47.819 30.0547 47.9053C30.0691 47.819 30.0838 47.7327 30.0986 47.6465ZM30.5654 45.2402C30.5501 45.3112 30.5346 45.3821 30.5195 45.4531C30.5346 45.3821 30.5501 45.3112 30.5654 45.2402ZM31.1133 42.9443C31.0922 43.025 31.0715 43.1058 31.0508 43.1865C31.0715 43.1058 31.0922 43.025 31.1133 42.9443ZM31.4277 41.7881C31.411 41.847 31.3944 41.9059 31.3779 41.9648C31.3944 41.9059 31.411 41.847 31.4277 41.7881ZM32.5254 38.3447C32.4936 38.4346 32.4611 38.5242 32.4297 38.6143C32.4611 38.5242 32.4936 38.4346 32.5254 38.3447ZM33.8018 35.0654C33.7775 35.1223 33.7535 35.1793 33.7295 35.2363C33.7535 35.1793 33.7775 35.1223 33.8018 35.0654ZM34.2725 33.9883C34.2447 34.0498 34.2189 34.1122 34.1914 34.1738C34.2191 34.1117 34.2464 34.0493 34.2744 33.9873L34.2725 33.9883Z" fill="url(#paint0_linear_147_211)"/>
<path d="M56.4772 330H193.04C221.672 330 249.133 341.376 269.379 361.626C289.626 381.875 301 409.34 301 437.977V574.514C301 589.495 306.95 603.863 317.542 614.456C328.133 625.049 342.499 631 357.477 631H545.523C560.501 631 574.867 625.049 585.458 614.456C596.05 603.863 602 589.495 602 574.514V386.486C602 371.505 596.05 357.137 585.458 346.544C574.867 335.951 560.501 330 545.523 330H408.961C380.328 330 352.867 318.624 332.621 298.374C312.374 278.125 301 250.66 301 222.023V85.4857C301 70.5048 295.05 56.1374 284.458 45.5443C273.867 34.9512 259.501 29 244.523 29H56.4772C41.4985 29 27.1333 34.9512 16.5418 45.5443C5.95026 56.1374 0 70.5048 0 85.4857L0 273.514C0 288.495 5.95026 302.863 16.5418 313.456C27.1333 324.049 41.4985 330 56.4772 330Z" fill="#F9F9F9"/>
<defs>
<linearGradient id="paint0_linear_147_211" x1="1.00001" y1="1.00024" x2="631" y2="631" gradientUnits="userSpaceOnUse">
<stop stop-color="#59B672"/>
<stop offset="0.5" stop-color="#1A74C2"/>
<stop offset="1" stop-color="#59B672"/>
</linearGradient>
</defs>
</svg>
