<?xml version="1.0" standalone="no"?>
<!DOCTYPE svg PUBLIC "-//W3C//DTD SVG 20010904//EN"
 "http://www.w3.org/TR/2001/REC-SVG-20010904/DTD/svg10.dtd">
<svg version="1.0" xmlns="http://www.w3.org/2000/svg"
 width="700.000000pt" height="700.000000pt" viewBox="0 0 700.000000 700.000000"
 preserveAspectRatio="xMidYMid meet">
<metadata>
Created by potrace 1.14, written by Peter Selinger 2001-2017
</metadata>
<g transform="translate(0.000000,700.000000) scale(0.100000,-0.100000)"
fill="#000000" stroke="none">
<path d="M1336 6844 c-84 -20 -188 -79 -252 -142 -51 -50 -114 -135 -114 -154
0 -4 379 -8 843 -8 821 0 844 -1 917 -21 236 -65 411 -244 487 -498 15 -50 17
-149 23 -916 l6 -860 26 -97 c52 -190 138 -341 272 -473 123 -123 255 -197
436 -248 73 -20 101 -21 885 -27 l810 -5 73 -27 c109 -39 178 -84 264 -170 61
-61 86 -96 122 -170 87 -176 80 -79 84 -1274 1 -584 -1 -1087 -6 -1118 l-9
-56 86 0 c162 0 282 50 396 165 84 84 138 185 160 300 22 114 22 2105 0 2210
-35 168 -149 322 -293 399 -127 66 -123 66 -948 66 -798 0 -828 2 -979 53
-314 108 -572 369 -679 689 -61 181 -59 138 -65 1073 l-6 860 -27 75 c-71 193
-220 330 -409 375 -92 21 -2012 21 -2103 -1z"/>
<path d="M572 6406 c-185 -45 -339 -198 -408 -406 -18 -52 -19 -118 -22 -1109
-3 -1175 -4 -1152 63 -1289 66 -133 196 -248 334 -294 65 -22 74 -23 876 -28
793 -6 812 -6 888 -27 184 -52 327 -135 467 -269 181 -175 294 -392 335 -647
12 -76 15 -231 15 -877 0 -880 -1 -863 71 -1009 74 -150 217 -263 376 -296
102 -22 1975 -22 2078 0 195 41 354 188 423 389 l27 81 0 1075 c0 1175 3 1119
-60 1255 -61 134 -174 238 -320 296 l-60 24 -810 5 -810 6 -97 26 c-182 50
-330 133 -465 261 -163 155 -263 332 -330 587 -15 58 -17 158 -23 925 -5 793
-7 864 -24 915 -70 213 -232 369 -424 409 -81 17 -2029 14 -2100 -3z"/>
</g>
</svg>
